<?xml version="1.0" standalone="no"?>
<!DOCTYPE svg PUBLIC "-//W3C//DTD SVG 1.1//EN" "http://www.w3.org/Graphics/SVG/1.1/DTD/svg11.dtd" >
<svg>
<metadata>
Created by FontForge 20090622 at Mon Nov 12 04:55:04 2018
 By ffonts
</metadata>
<defs>
<font id="GeizerRegular" horiz-adv-x="370" >
  <font-face 
    font-family="Geizer"
    font-weight="400"
    font-stretch="normal"
    units-per-em="1000"
    panose-1="0 0 0 0 0 0 0 0 0 0"
    ascent="800"
    descent="-200"
    x-height="699.98"
    cap-height="699.98"
    bbox="16.5496 -133.88 753.424 805.521"
    underline-thickness="0"
    underline-position="0"
    unicode-range="U+000A-U+203A"
  />
<missing-glyph horiz-adv-x="500" 
 />
    <glyph glyph-name=".notdef" horiz-adv-x="500" 
 />
    <glyph glyph-name=".notdef" horiz-adv-x="500" 
 />
    <glyph glyph-name="LF" unicode="&#xa;" horiz-adv-x="0" 
 />
    <glyph glyph-name="controlCR" unicode="&#xd;" horiz-adv-x="0" 
 />
    <glyph glyph-name="space" unicode=" " horiz-adv-x="236" 
 />
    <glyph glyph-name="exclam" unicode="!" horiz-adv-x="204" 
d="M158.763 0h-114.04v114.03h114.04v-114.03zM16.5527 699.99l170.391 -0.00195312l-20.2695 -34.1797c-5.19043 -8.70996 -7.91016 -18.6797 -7.91016 -28.8301v-193.95c0 -71.71 -2.37012 -172.71 -7.11035 -244.25h-99.8203l-0.0195312 0.240234
c-4.70996 71.3701 -7.07031 172.2 -7.07031 243.73v194.23c0 10.1504 -2.74023 20.1006 -7.91016 28.8311z" />
    <glyph glyph-name="quotedbl" unicode="&#x22;" horiz-adv-x="281" 
d="M22.8926 474.57l-6.33984 225.42h101.62l-6.33008 -225.42h-88.9502zM162.112 699.99h101.62l-6.33984 -225.42h-88.96z" />
    <glyph glyph-name="numbersign" unicode="#" horiz-adv-x="640" 
d="M593.272 647.56l-63.6689 -173.042h92.0898v-114.02h-134.06l-28.54 -77.5h162.58v-114.04h-204.56l-34.4902 -93.71c-6.46973 -17.5596 -4.67969 -37.1299 4.87988 -53.2402l13.0801 -22.0498h-170.39l25.2598 42.6104c1.94043 3.25977 3.57031 6.68945 4.87988 10.2598
l42.75 116.15h-99.5996l-34.5 -93.71c-6.45996 -17.5703 -4.66992 -37.1406 4.87988 -53.2402l13.0801 -22.0498h-170.39l25.2695 42.5996c1.92969 3.26953 3.55957 6.69922 4.86914 10.2588l42.75 116.15h-71.2598v114.04h113.24l28.5303 77.5h-141.76v114.02h183.74
l56.1299 152.5c5.92969 16.0703 4.30957 33.9707 -4.43066 48.7109l-14.3301 24.2197h170.39l-25.5596 -43c-1.79004 -3 -3.2998 -6.16992 -4.5 -9.43945l-63.6602 -172.97h99.5996l56.1299 152.5c5.92969 16.0703 4.2998 33.9707 -4.43066 48.7109l-14.3301 24.21h170.39
l-25.5596 -42.9902c-1.79004 -3.00977 -3.2998 -6.17969 -4.5 -9.43945zM345.094 283.048l28.5303 77.5h-99.5996l-28.5303 -77.5h99.5996z" />
    <glyph glyph-name="dollar" unicode="$" 
d="M329.583 699.99c13.1104 0 23.7422 -10.6201 23.7422 -23.7197v-118.47l-41.9502 24.8799c-3.63965 2.16016 -7.7998 3.2998 -12.0303 3.2998h-168.74v-136.53h203.52c10.5898 0 19.1797 -8.58984 19.1797 -19.1797v-372.91
c0 -31.6699 -25.6797 -57.3496 -57.3496 -57.3496h-54.0098v-68.2598h-114.03v68.2598h-87.6396c-13.0996 0 -23.7197 10.6201 -23.7197 23.7305v189.14c0 8.00977 4.26953 15.3994 11.1992 19.3994l102.82 59.3701v-177.62h108.68v221.39h-196.25
c-14.6104 0 -26.4502 11.8301 -26.4502 26.4404v280.79c0 31.6699 25.6797 57.3398 57.3496 57.3398h54.0098v68.2695h114.03v-68.2695h87.6396z" />
    <glyph glyph-name="percent" unicode="%" horiz-adv-x="770" 
d="M340.873 75.2998c-6.46973 -17.5801 -4.67969 -37.1299 4.87988 -53.2695l13.0801 -22.0498h-170.39l25.2598 42.5996c1.94043 3.26953 3.57031 6.69922 4.87988 10.2588l211.34 574.21c5.92969 16.0703 4.2998 33.9707 -4.43066 48.7109l-14.3398 24.2197h170.4
l-25.5596 -43c-1.79004 -2.99023 -3.2998 -6.16016 -4.5 -9.41992zM329.283 520.95c0 -86.2305 -70.1504 -156.361 -156.36 -156.361c-86.2197 0 -156.35 70.1299 -156.35 156.36v22.6904c0 86.2002 70.1299 156.351 156.35 156.351
c86.2305 0 156.36 -70.1299 156.36 -156.35v-22.6904zM230.243 520.949v22.6904c0 31.6602 -25.6797 57.3203 -57.3301 57.3203c-31.6699 0 -57.3301 -25.6699 -57.3301 -57.3203v-22.6904c0 -31.6699 25.6797 -57.3301 57.3301 -57.3301
c31.6699 0 57.3301 25.6699 57.3301 57.3301zM597.063 335.42c86.2305 0 156.36 -70.1494 156.36 -156.38v-22.6699c0 -86.21 -70.1299 -156.36 -156.36 -156.36c-86.2197 0 -156.35 70.1396 -156.35 156.359v22.6904c0 86.21 70.1299 156.36 156.35 156.36z
M654.394 156.351v22.6904c0 31.6699 -25.6699 57.3301 -57.3301 57.3301c-31.6699 0 -57.3301 -25.6797 -57.3301 -57.3301v-22.6904c0 -31.6699 25.6797 -57.3301 57.3301 -57.3301c31.6699 0 57.3301 25.6797 57.3301 57.3301z" />
    <glyph glyph-name="ampersand" unicode="&#x26;" horiz-adv-x="427" 
d="M353.282 335.42v-271.971c0 -10.4297 2.80957 -20.6494 8.12988 -29.6191l20.0596 -33.8203h-142.2v56.3604c0 -31.1201 -25.2402 -56.3604 -56.3604 -56.3604h-109.93c-30.7695 0 -55.7197 24.9404 -55.7197 55.7207v280.33c0 31.1201 25.2305 56.3604 56.3604 56.3604
c-31.1299 0 -56.3604 25.2305 -56.3604 56.3604v137.18h-0.709961v53.5898c0 33.3896 27.0703 60.4395 60.4502 60.4395h276.3v-114.03h-222.01v-136.53h107.98v68.2695h114.01v-68.2695h57.0195v-114.01h-57.0195zM239.252 114.029v221.39h-107.98v-221.39h107.98z" />
    <glyph glyph-name="quotesingle" unicode="'" horiz-adv-x="135" 
d="M16.5527 699.99h101.62l-6.33008 -225.42h-88.9697z" />
    <glyph glyph-name="parenleft" unicode="(" horiz-adv-x="239" 
d="M221.912 670.06c-120.48 -197.45 -120.48 -442.771 0 -640.221l-98.0898 -59.8496c-143.03 234.37 -143.03 525.561 0 759.931z" />
    <glyph glyph-name="parenright" unicode=")" horiz-adv-x="239" 
d="M114.643 729.92c143.03 -234.37 143.03 -525.56 0 -759.92l-98.0898 59.8604c120.49 197.43 120.49 442.77 0 640.199z" />
    <glyph glyph-name="asterisk" unicode="*" horiz-adv-x="345" 
d="M328.353 547.95l-56.4609 -20.5898l46.7197 -52.1504l-85.5996 -76.6699l-60.5596 67.5898l-60.5303 -67.5898l-85.6201 76.6699l46.71 52.1504l-56.46 20.5898l39.3701 107.96l59.0703 -21.5195v65.5996h114.92v-65.5996l59.0703 21.5195z" />
    <glyph glyph-name="plus" unicode="+" 
d="M241.933 407.01h111.35v-114.03h-111.35v-111.36h-114.02v111.36h-111.36v114.03h111.36v111.36h114.02v-111.36z" />
    <glyph glyph-name="comma" unicode="," horiz-adv-x="148" 
d="M16.5527 114.03l114.05 -0.000976562v-44.6699c0 -23.9697 -2.53027 -48.0693 -9.7998 -70.9189c-13.6904 -42.9502 -39.6006 -81.04 -74.4404 -109.82l-26.1797 40.3096c22.21 19.4805 39.6104 43.75 50.5605 71.0703h-54.1904v114.03z" />
    <glyph glyph-name="hyphen" unicode="-" horiz-adv-x="441" 
d="M16.5527 407.01h407.8v-114.03h-407.8v114.03z" />
    <glyph glyph-name="period" unicode="." horiz-adv-x="148" 
d="M130.572 0h-114.02v114.03h114.02v-114.03z" />
    <glyph glyph-name="slash" unicode="/" horiz-adv-x="427" 
d="M239.272 699.99l170.392 -0.0283203l-25.5596 -43c-1.79004 -2.98047 -3.2998 -6.15039 -4.5 -9.41992l-210.62 -572.25c-6.45996 -17.5703 -4.66992 -37.1406 4.87988 -53.251l13.0801 -22.04h-170.39l25.2695 42.5996c1.92969 3.26953 3.55957 6.69922 4.86914 10.2588
l211.34 574.21c5.92969 16.0703 4.2998 33.9707 -4.43066 48.7109z" />
    <glyph glyph-name="zero" unicode="0" 
d="M289.393 699.99c35.29 0 63.9102 -28.6104 63.9102 -63.9102v-572.19c0 -35.2998 -28.6201 -63.9102 -63.9102 -63.9102h-208.93c-35.29 0 -63.9102 28.6104 -63.9102 63.9102v572.19c0 35.2998 28.6201 63.9102 63.9102 63.9102h208.93zM156.133 585.96
c-14.1201 0 -25.5508 -11.4297 -25.5508 -25.5498v-140.25l108.69 62.75v77.5c0 14.0996 -11.4297 25.5498 -25.5498 25.5498h-57.5898zM213.722 114.03c14.0996 0 25.5508 11.4404 25.5508 25.54v211.67l-108.69 -62.75v-148.92c0 -14.0996 11.4502 -25.54 25.5498 -25.54
h57.5898z" />
    <glyph glyph-name="one" unicode="1" horiz-adv-x="242" 
d="M203.923 34.8301l20.6699 -34.8408h-170.38l20.6504 34.8398c4.92969 8.29004 7.51953 17.7598 7.51953 27.4199v523.71h-65.8301l48.46 83.9404c10.7598 18.6201 30.6201 30.0898 52.1104 30.0898h79.2803v-637.74c0 -9.63965 2.58984 -19.1094 7.51953 -27.4189z" />
    <glyph glyph-name="two" unicode="2" 
d="M73.293 699.99l222.34 -0.000976562c31.8604 0 57.6699 -25.8203 57.6504 -57.6699v-247.31c0 -32.9199 -26.6699 -59.5996 -59.5898 -59.5996h-136.82c-14.5303 0 -26.2998 -11.7695 -26.2998 -26.2998v-195.13h160.57c9.58984 0 18.9795 2.58008 27.2197 7.46973
l34.9404 20.7197v-142.21h-336.75v390.06c0 32.7998 26.5996 59.3994 59.3994 59.3994h137.03c14.5303 0 26.2998 11.7695 26.2998 26.2998v83.9404c0 14.5303 -11.7695 26.2998 -26.2998 26.2998h-148.9l-47.5098 -28.1699v85.4805
c0 31.3203 25.3896 56.7207 56.7197 56.7207z" />
    <glyph glyph-name="three" unicode="3" 
d="M16.5527 699.99l275.649 -0.000976562c33.75 0 61.0996 -27.3496 61.0996 -61.0996v-190.1c0 -31.1299 -25.2305 -56.3604 -56.3604 -56.3604c31.1299 0 56.3604 -25.2305 56.3604 -56.3604v-275c0 -33.7598 -27.3496 -61.1094 -61.0996 -61.1094h-275.65v142.21
l33.0596 -19.5996c9.48047 -5.62012 20.2607 -8.57031 31.2607 -8.57031h158.4v221.38h-101.41c-11 0 -21.8096 -2.9502 -31.2598 -8.57031l-33.0703 -19.5996v170.39l33.0703 -19.5996c9.46973 -5.61035 20.2598 -8.57031 31.2598 -8.57031h101.41v136.53h-158.4
c-11 0 -21.7998 -2.95996 -31.2598 -8.57031l-33.0596 -19.5996v142.2z" />
    <glyph glyph-name="four" unicode="4" horiz-adv-x="399" 
d="M361.763 34.9297l20.6797 -34.9395h-170.38l20.7197 34.9199c4.88965 8.24023 7.46973 17.6504 7.46973 27.2207v273.27h-167.78c-30.3398 0 -54.9297 24.5898 -54.9297 54.9297v59.0996h-0.990234v152.11c0 20.1699 10.75 38.8203 28.2402 48.9199l85.7803 49.5303
v-225.77c0 -13.6904 11.0996 -24.79 24.79 -24.79h84.8896v250.56h114.04v-637.84c0 -9.57031 2.57031 -18.9805 7.4707 -27.2207z" />
    <glyph glyph-name="five" unicode="5" 
d="M289.883 585.96l-159.3 0.000976562v-136.51h161.12c34.0195 0 61.5996 -27.5801 61.5996 -61.5996v-326.23c0 -34.0098 -27.5801 -61.5898 -61.5996 -61.5898h-212.24c-34.7402 0 -62.9102 28.1504 -62.9102 62.9102v228.72l85.0098 -49.0801
c17.9404 -10.3799 29.0107 -29.5195 29.0107 -50.2598v-53.8799c0 -13.4805 10.9297 -24.4102 24.4102 -24.4102h59.6299c13.6201 0 24.6602 11.0498 24.6602 24.6602v168.55c0 15.5498 -12.6104 28.1602 -28.1602 28.1602h-194.56v364.59h336.75v-142.2l-33.8203 20.0596
c-8.95996 5.2998 -19.1904 8.10938 -29.6006 8.10938z" />
    <glyph glyph-name="six" unicode="6" 
d="M78.793 699.99l274.489 0.000976562v-142.2l-33.4199 19.8096c-9.20996 5.46973 -19.75 8.35938 -30.4697 8.35938h-133.21c-14.1396 0 -25.6094 -11.46 -25.6094 -25.6104v-110.92h162.27c33.3701 0 60.4297 -27.0498 60.4297 -60.4297v-328.57
c0 -33.3799 -27.0596 -60.4395 -60.4297 -60.4395h-215.86c-33.3701 0 -60.4297 27.0596 -60.4297 60.4395v577.32c0 34.3799 27.8604 62.2402 62.2402 62.2402zM239.282 311.071c0 13.4404 -10.9004 24.3398 -24.3408 24.3301h-54.9199
c-16.25 0 -29.4404 -13.1904 -29.4404 -29.4404v-167.59c0 -13.4404 10.9102 -24.3408 24.3506 -24.3408h60.0098c13.4404 0 24.3408 10.9004 24.3408 24.3408v172.7z" />
    <glyph glyph-name="seven" unicode="7" 
d="M353.322 699.34l-3.13867 -9.80957l-161.97 -543.16l-22.2803 -74.7803c-4.58008 -15.3701 -2.53027 -31.9297 5.64941 -45.7197l15.3496 -25.8896h-170.38l24.54 41.3896c2.37012 4 4.24023 8.26953 5.57031 12.7197l158.61 531.87h-124.91
c-10.6504 0 -21.1309 -2.87988 -30.3008 -8.30957l-33.4902 -19.8604v142.2h336.75v-0.650391z" />
    <glyph glyph-name="eight" unicode="8" 
d="M75.3623 699.99l219.101 0.00195312c32.4697 0 58.8096 -26.3203 58.8096 -58.8008v-192.4c0 -31.1299 -25.2402 -56.3604 -56.3604 -56.3604c31.1201 0 56.3604 -25.2305 56.3604 -56.3604v-277.25c0 -32.4805 -26.3203 -58.8105 -58.8105 -58.8105h-219.1
c-32.4805 0 -58.8105 26.3203 -58.8105 58.8105v55.21h0.709961v222.04c0 31.1299 25.2305 56.3604 56.3604 56.3604c-31.1299 0 -56.3604 25.2305 -56.3604 56.3604v137.18h-0.709961v55.2197c0 32.4697 26.3203 58.7998 58.8105 58.7998zM131.272 142.822
c0 -15.9004 12.8896 -28.79 28.7998 -28.79h50.3799c15.9102 0 28.7998 12.8896 28.7998 28.79v163.8c0 15.9102 -12.8896 28.79 -28.7998 28.79h-50.3799c-15.9102 0 -28.7998 -12.8799 -28.7998 -28.79v-163.8zM210.452 449.433
c15.9102 0 28.7998 12.9102 28.7998 28.7998v78.9297c0 15.9102 -12.8896 28.7998 -28.7998 28.7998h-50.3799c-15.9102 0 -28.7998 -12.8896 -28.7998 -28.7998v-78.9297c0 -15.9102 12.8896 -28.7998 28.7998 -28.7998h50.3799z" />
    <glyph glyph-name="nine" unicode="9" 
d="M75.9121 699.99l217.991 0.00195312c32.79 0 59.3701 -26.5801 59.3701 -59.3604v-270.99c0 -22.7197 -3.2998 -45.29 -9.79004 -67.0596l-46.5703 -156.19l-22.2803 -74.7803c-4.58008 -15.3701 -2.53027 -31.9404 5.64941 -45.7305l15.3496 -25.8896h-170.38
l24.54 41.3896c2.37012 4.00977 4.24023 8.2793 5.57031 12.7295l83.8896 281.3h-163.34c-32.7803 0 -59.3604 26.5801 -59.3604 59.3701v245.85c0 32.7803 26.5801 59.3604 59.3604 59.3604zM216.483 449.433c12.5703 0 22.7705 10.2002 22.79 22.79v90.9697
c0 12.5898 -10.2197 22.7803 -22.79 22.7803h-63.1299c-12.5898 0 -22.7803 -10.21 -22.7803 -22.7803v-90.9697c0 -12.5898 10.21 -22.79 22.7803 -22.79h63.1299z" />
    <glyph glyph-name="colon" unicode=":" horiz-adv-x="148" 
d="M130.593 0h-114.03v114.03h114.03v-114.03zM130.593 335.4h-114.03v114.04h114.03v-114.04z" />
    <glyph glyph-name="semicolon" unicode=";" horiz-adv-x="148" 
d="M130.583 335.4h-114.02v114.04h114.02v-114.04zM16.5635 114.03l114.051 -0.000976562v-44.6699c0 -23.9697 -2.51953 -48.0693 -9.7998 -70.9189c-13.6904 -42.9502 -39.6006 -81.04 -74.4307 -109.82l-26.1904 40.3096c22.21 19.4805 39.6201 43.75 50.5703 71.0703
h-54.2002v114.03z" />
    <glyph glyph-name="less" unicode="&#x3c;" 
d="M353.043 512.23l-170.05 -162.27l170.05 -162.3l-79.3604 -83.1504l-257.13 245.45l257.13 245.42z" />
    <glyph glyph-name="equal" unicode="=" horiz-adv-x="441" 
d="M16.5527 509.37h407.8v-114.03h-407.8v114.03zM16.5527 304.65h407.8v-114.03h-407.8v114.03z" />
    <glyph glyph-name="greater" unicode="&#x3e;" 
d="M95.9121 595.38l257.13 -245.42l-257.13 -245.45l-79.3604 83.1504l170.03 162.3l-170.03 162.27z" />
    <glyph glyph-name="question" unicode="?" horiz-adv-x="371" 
d="M242.402 -0.429688h-114.03v114.02h114.03v-114.02zM241.062 699.99c62.5 0 113.162 -50.6592 113.162 -113.159v-111.72c0 -31.75 -12.4102 -62.2402 -34.6104 -84.96l-77.2598 -79.1104l0.509766 -112.61h-114.92v113.87c0 29.5498 11.5596 57.9199 32.1992 79.0498
l77.25 79.0996c1.21973 1.25 1.91016 2.91992 1.91016 4.67969v109.94h-104.23c-1.99023 0 -3.60059 -1.61035 -3.60059 -3.58008v-29.6104c0 -22.6299 -12.0801 -43.5596 -31.6797 -54.8691l-83.2402 -48.0498v132.52c0 65.4502 53.0596 118.51 118.52 118.51h105.99z" />
    <glyph glyph-name="at" unicode="@" horiz-adv-x="590" 
d="M441.723 325.88l-0.0283203 -72.248h15.3496c0.540039 1.55957 0.990234 3.68945 0.990234 6.37988v204.64c0 2.7002 -0.459961 4.85059 -0.990234 6.41016h-324.58c-0.549805 -1.55957 -0.990234 -3.70996 -0.990234 -6.41016v-343.41
c0 -2.7002 0.459961 -4.85059 0.990234 -6.41016h440.49l-28.2402 -76.71c-8.45996 -22.9502 -30.3203 -38.21 -54.79 -38.21h-364.61c-59.9697 0 -108.76 54.4404 -108.76 121.33v343.41c0 66.9004 48.79 121.33 108.76 121.33h338.87
c59.9697 0 108.77 -54.4404 108.77 -121.33v-204.64c0 -66.9004 -48.7998 -121.311 -108.77 -121.311h-195.07c-67 0 -121.3 54.3096 -121.3 121.31v65.8701c0 67 54.2998 121.3 121.3 121.3h51.3096c2.15039 0 4.25 -0.209961 6.37988 -0.320312v0.320312h88.8496
c14.4004 0 26.0703 -11.6699 26.0703 -26.0703v-95.2305zM326.805 260.012l0.0195312 65.8701c0 3.50977 -2.87012 6.37988 -6.38965 6.37988h-51.2998c-3.50977 0 -6.38965 -2.87012 -6.38965 -6.37988v-65.8701c0 -3.50977 2.87988 -6.37988 6.38965 -6.37988h51.29
c3.50977 0 6.37988 2.87012 6.37988 6.37988z" />
    <glyph glyph-name="A" unicode="A" horiz-adv-x="427" 
d="M381.473 636.6v-573.209c0 -10.3896 2.79004 -20.5996 8.09961 -29.54l20.0703 -33.8496h-170.37l20.0703 33.8496c5.30957 8.9502 8.09961 19.1504 8.09961 29.54v294.57l-108.68 -62.7402v-231.83c0 -10.3896 2.79004 -20.5996 8.08984 -29.54l20.0801 -33.8496
h-170.38l20.0801 33.8496c5.2998 8.9502 8.08984 19.1504 8.08984 29.54v573.21c0 10.3896 -2.79004 20.5996 -8.08984 29.5293l-20.0801 33.8496h393.09l-20.0703 -33.8496c-5.30957 -8.9502 -8.09961 -19.1406 -8.09961 -29.5303zM158.763 426.881l108.68 62.75v96.3398
h-108.68v-159.09z" />
    <glyph glyph-name="A" unicode="&#xc5;" horiz-adv-x="427" 
d="M381.473 636.6v-573.209c0 -10.3896 2.79004 -20.5996 8.09961 -29.54l20.0703 -33.8496h-170.37l20.0703 33.8496c5.30957 8.9502 8.09961 19.1504 8.09961 29.54v294.57l-108.68 -62.7402v-231.83c0 -10.3896 2.79004 -20.5996 8.08984 -29.54l20.0801 -33.8496
h-170.38l20.0801 33.8496c5.2998 8.9502 8.08984 19.1504 8.08984 29.54v573.21c0 10.3896 -2.79004 20.5996 -8.08984 29.5293l-20.0801 33.8496h393.09l-20.0703 -33.8496c-5.30957 -8.9502 -8.09961 -19.1406 -8.09961 -29.5303zM158.763 426.881l108.68 62.75v96.3398
h-108.68v-159.09z" />
    <glyph glyph-name="A" unicode="&#xc4;" horiz-adv-x="427" 
d="M381.473 636.6v-573.209c0 -10.3896 2.79004 -20.5996 8.09961 -29.54l20.0703 -33.8496h-170.37l20.0703 33.8496c5.30957 8.9502 8.09961 19.1504 8.09961 29.54v294.57l-108.68 -62.7402v-231.83c0 -10.3896 2.79004 -20.5996 8.08984 -29.54l20.0801 -33.8496
h-170.38l20.0801 33.8496c5.2998 8.9502 8.08984 19.1504 8.08984 29.54v573.21c0 10.3896 -2.79004 20.5996 -8.08984 29.5293l-20.0801 33.8496h393.09l-20.0703 -33.8496c-5.30957 -8.9502 -8.09961 -19.1406 -8.09961 -29.5303zM158.763 426.881l108.68 62.75v96.3398
h-108.68v-159.09z" />
    <glyph glyph-name="A" unicode="&#xc3;" horiz-adv-x="427" 
d="M381.473 636.6v-573.209c0 -10.3896 2.79004 -20.5996 8.09961 -29.54l20.0703 -33.8496h-170.37l20.0703 33.8496c5.30957 8.9502 8.09961 19.1504 8.09961 29.54v294.57l-108.68 -62.7402v-231.83c0 -10.3896 2.79004 -20.5996 8.08984 -29.54l20.0801 -33.8496
h-170.38l20.0801 33.8496c5.2998 8.9502 8.08984 19.1504 8.08984 29.54v573.21c0 10.3896 -2.79004 20.5996 -8.08984 29.5293l-20.0801 33.8496h393.09l-20.0703 -33.8496c-5.30957 -8.9502 -8.09961 -19.1406 -8.09961 -29.5303zM158.763 426.881l108.68 62.75v96.3398
h-108.68v-159.09z" />
    <glyph glyph-name="A" unicode="&#xc2;" horiz-adv-x="427" 
d="M381.473 636.6v-573.209c0 -10.3896 2.79004 -20.5996 8.09961 -29.54l20.0703 -33.8496h-170.37l20.0703 33.8496c5.30957 8.9502 8.09961 19.1504 8.09961 29.54v294.57l-108.68 -62.7402v-231.83c0 -10.3896 2.79004 -20.5996 8.08984 -29.54l20.0801 -33.8496
h-170.38l20.0801 33.8496c5.2998 8.9502 8.08984 19.1504 8.08984 29.54v573.21c0 10.3896 -2.79004 20.5996 -8.08984 29.5293l-20.0801 33.8496h393.09l-20.0703 -33.8496c-5.30957 -8.9502 -8.09961 -19.1406 -8.09961 -29.5303zM158.763 426.881l108.68 62.75v96.3398
h-108.68v-159.09z" />
    <glyph glyph-name="A" unicode="&#xc1;" horiz-adv-x="427" 
d="M381.473 636.6v-573.209c0 -10.3896 2.79004 -20.5996 8.09961 -29.54l20.0703 -33.8496h-170.37l20.0703 33.8496c5.30957 8.9502 8.09961 19.1504 8.09961 29.54v294.57l-108.68 -62.7402v-231.83c0 -10.3896 2.79004 -20.5996 8.08984 -29.54l20.0801 -33.8496
h-170.38l20.0801 33.8496c5.2998 8.9502 8.08984 19.1504 8.08984 29.54v573.21c0 10.3896 -2.79004 20.5996 -8.08984 29.5293l-20.0801 33.8496h393.09l-20.0703 -33.8496c-5.30957 -8.9502 -8.09961 -19.1406 -8.09961 -29.5303zM158.763 426.881l108.68 62.75v96.3398
h-108.68v-159.09z" />
    <glyph glyph-name="A" unicode="&#xc0;" horiz-adv-x="427" 
d="M381.473 636.6v-573.209c0 -10.3896 2.79004 -20.5996 8.09961 -29.54l20.0703 -33.8496h-170.37l20.0703 33.8496c5.30957 8.9502 8.09961 19.1504 8.09961 29.54v294.57l-108.68 -62.7402v-231.83c0 -10.3896 2.79004 -20.5996 8.08984 -29.54l20.0801 -33.8496
h-170.38l20.0801 33.8496c5.2998 8.9502 8.08984 19.1504 8.08984 29.54v573.21c0 10.3896 -2.79004 20.5996 -8.08984 29.5293l-20.0801 33.8496h393.09l-20.0703 -33.8496c-5.30957 -8.9502 -8.09961 -19.1406 -8.09961 -29.5303zM158.763 426.881l108.68 62.75v96.3398
h-108.68v-159.09z" />
    <glyph glyph-name="B" unicode="B" horiz-adv-x="398" 
d="M16.5527 700h301.238c35.1699 0 63.6699 -28.5 63.6699 -63.6699v-187.55c0 -31.1201 -25.2402 -56.3604 -56.3604 -56.3604c31.1201 0 56.3604 -25.2305 56.3604 -56.3604v-271.29c0 -35.7695 -29 -64.7695 -64.7695 -64.7695h-300.14l20 33.71
c5.36035 9.04004 8.19043 19.3496 8.19043 29.8594v571.65c0 11.29 -3.05957 22.4102 -8.81934 32.1299zM158.761 114.02h80.1006c15.79 0 28.5898 12.8096 28.5898 28.5996v164.89c0 15.4199 -12.4902 27.9004 -27.8906 27.9004h-80.7998v-221.39zM239.562 449.439
c15.4004 0 27.8799 12.4805 27.8896 27.8809v80.0498c0 15.79 -12.7998 28.5996 -28.5898 28.5996h-80.0996v-136.53h80.7998z" />
    <glyph glyph-name="C" unicode="C" 
d="M223.643 700l65.8096 -0.0185547c35.2695 0 63.8496 -28.5801 63.8496 -63.8398v-78.3496l-32.8701 19.4902c-9.58008 5.67969 -20.54 8.68945 -31.6797 8.68945h-129.37c-15.9102 0 -28.8105 -12.9102 -28.8105 -28.8203v-414.33
c0 -15.9102 12.9004 -28.8203 28.8105 -28.8203h129.37c11.1396 0 22.0996 3.00977 31.6797 8.68945l32.8701 19.4902v-78.3496c0 -35.2598 -28.5801 -63.8398 -63.8496 -63.8398h-210.79c-34.2998 0 -62.1094 27.8096 -62.1094 62.0996v575.8
c0 34.2998 27.8096 62.1094 62.1094 62.1094h144.98z" />
    <glyph glyph-name="C" unicode="&#xc7;" 
d="M223.643 700l65.8096 -0.0185547c35.2695 0 63.8496 -28.5801 63.8496 -63.8398v-78.3496l-32.8701 19.4902c-9.58008 5.67969 -20.54 8.68945 -31.6797 8.68945h-129.37c-15.9102 0 -28.8105 -12.9102 -28.8105 -28.8203v-414.33
c0 -15.9102 12.9004 -28.8203 28.8105 -28.8203h129.37c11.1396 0 22.0996 3.00977 31.6797 8.68945l32.8701 19.4902v-78.3496c0 -35.2598 -28.5801 -63.8398 -63.8496 -63.8398h-210.79c-34.2998 0 -62.1094 27.8096 -62.1094 62.0996v575.8
c0 34.2998 27.8096 62.1094 62.1094 62.1094h144.98z" />
    <glyph glyph-name="D" unicode="D" horiz-adv-x="398" 
d="M267.452 700l58.1895 -0.0195312c30.8301 0 55.8203 -24.9805 55.8203 -55.8105v-588.35c0 -30.8301 -24.9902 -55.8203 -55.8203 -55.8203h-309.09l20.3701 34.3301c5.12988 8.62012 7.82031 18.4697 7.82031 28.4795v574.36
c0 10.0303 -2.70996 19.8701 -7.82031 28.4902l-20.3701 34.3398h250.9zM241.071 114.021c14.5596 0 26.3799 11.8193 26.3799 26.3994v419.16c0 14.5703 -11.7998 26.3906 -26.3799 26.3906h-82.2998v-471.95h82.2998z" />
    <glyph glyph-name="E" unicode="E" horiz-adv-x="398" 
d="M16.5527 700l364.91 -0.00195312v-142.21l-34.71 20.5898c-8.37012 4.95996 -17.9404 7.58984 -27.6807 7.58984h-160.31v-136.53h103.31c9.74023 0 19.3105 2.61035 27.6807 7.59082l34.71 20.5801v-170.38l-34.71 20.5898
c-8.37012 4.95996 -17.9404 7.58984 -27.6807 7.58984h-103.31v-221.36h160.31c9.74023 0 19.3105 2.61035 27.6807 7.59082l34.71 20.5801v-142.2h-364.91l20.5898 34.7002c4.95996 8.37988 7.58008 17.9502 7.58008 27.6807v575.21
c0 9.74023 -2.61035 19.3105 -7.58008 27.6807z" />
    <glyph glyph-name="E" unicode="&#xcb;" horiz-adv-x="398" 
d="M16.5527 700l364.91 -0.00195312v-142.21l-34.71 20.5898c-8.37012 4.95996 -17.9404 7.58984 -27.6807 7.58984h-160.31v-136.53h103.31c9.74023 0 19.3105 2.61035 27.6807 7.59082l34.71 20.5801v-170.38l-34.71 20.5898
c-8.37012 4.95996 -17.9404 7.58984 -27.6807 7.58984h-103.31v-221.36h160.31c9.74023 0 19.3105 2.61035 27.6807 7.59082l34.71 20.5801v-142.2h-364.91l20.5898 34.7002c4.95996 8.37988 7.58008 17.9502 7.58008 27.6807v575.21
c0 9.74023 -2.61035 19.3105 -7.58008 27.6807z" />
    <glyph glyph-name="E" unicode="&#xca;" horiz-adv-x="398" 
d="M16.5527 700l364.91 -0.00195312v-142.21l-34.71 20.5898c-8.37012 4.95996 -17.9404 7.58984 -27.6807 7.58984h-160.31v-136.53h103.31c9.74023 0 19.3105 2.61035 27.6807 7.59082l34.71 20.5801v-170.38l-34.71 20.5898
c-8.37012 4.95996 -17.9404 7.58984 -27.6807 7.58984h-103.31v-221.36h160.31c9.74023 0 19.3105 2.61035 27.6807 7.59082l34.71 20.5801v-142.2h-364.91l20.5898 34.7002c4.95996 8.37988 7.58008 17.9502 7.58008 27.6807v575.21
c0 9.74023 -2.61035 19.3105 -7.58008 27.6807z" />
    <glyph glyph-name="E" unicode="&#xc9;" horiz-adv-x="398" 
d="M16.5527 700l364.91 -0.00195312v-142.21l-34.71 20.5898c-8.37012 4.95996 -17.9404 7.58984 -27.6807 7.58984h-160.31v-136.53h103.31c9.74023 0 19.3105 2.61035 27.6807 7.59082l34.71 20.5801v-170.38l-34.71 20.5898
c-8.37012 4.95996 -17.9404 7.58984 -27.6807 7.58984h-103.31v-221.36h160.31c9.74023 0 19.3105 2.61035 27.6807 7.59082l34.71 20.5801v-142.2h-364.91l20.5898 34.7002c4.95996 8.37988 7.58008 17.9502 7.58008 27.6807v575.21
c0 9.74023 -2.61035 19.3105 -7.58008 27.6807z" />
    <glyph glyph-name="E" unicode="&#xc8;" horiz-adv-x="398" 
d="M16.5527 700l364.91 -0.00195312v-142.21l-34.71 20.5898c-8.37012 4.95996 -17.9404 7.58984 -27.6807 7.58984h-160.31v-136.53h103.31c9.74023 0 19.3105 2.61035 27.6807 7.59082l34.71 20.5801v-170.38l-34.71 20.5898
c-8.37012 4.95996 -17.9404 7.58984 -27.6807 7.58984h-103.31v-221.36h160.31c9.74023 0 19.3105 2.61035 27.6807 7.59082l34.71 20.5801v-142.2h-364.91l20.5898 34.7002c4.95996 8.37988 7.58008 17.9502 7.58008 27.6807v575.21
c0 9.74023 -2.61035 19.3105 -7.58008 27.6807z" />
    <glyph glyph-name="F" unicode="F" horiz-adv-x="398" 
d="M16.5527 700l364.919 -0.00195312v-142.22l-32.7695 19.4404c-9.65039 5.73047 -20.6699 8.75 -31.9004 8.75h-158.06v-136.55h101.05c11.2305 0 22.2402 3.01953 31.9004 8.75l32.7695 19.4404v-170.39l-32.7695 19.4404c-9.66016 5.73047 -20.6699 8.75 -31.9004 8.75
h-101.05v-270.76c0 -11.2305 3.01953 -22.2402 8.75 -31.9004l19.4404 -32.7598h-170.38l19.4404 32.7598c5.73047 9.66016 8.75 20.6699 8.75 31.9004v570.68c0 11.2305 -3.01953 22.25 -8.75 31.9004z" />
    <glyph glyph-name="G" unicode="G" 
d="M323.652 447.93l-84.3691 -48.7109v186.75h-108.68v-471.95h108.68v60.8604l-0.00976562 66.9004l0.00976562 0.0302734l-68.2402 39.4004l182.26 105.24v-520.33l-114.03 65.8301v68.04h-167.2c-30.6602 0 -55.5205 24.8496 -55.5205 55.5195v588.97
c0 30.6602 24.8604 55.5205 55.5205 55.5205h225.71c30.6602 0 55.5205 -24.8604 55.5205 -55.5205v-145.18c0 -21.2002 -11.29 -40.7803 -29.6504 -51.3701z" />
    <glyph glyph-name="H" unicode="H" horiz-adv-x="427" 
d="M381.473 635.64v-571.277c0 -11.0303 2.96973 -21.8506 8.58984 -31.3311l19.5801 -33.0303h-170.37l19.5801 33.0303c5.62012 9.49023 8.58984 20.3105 8.58984 31.3301v293.6l-108.68 -62.7402v-230.86c0 -11.0303 2.96973 -21.8506 8.58008 -31.3311l19.5898 -33.0303
h-170.38l19.5898 33.0303c5.61035 9.49023 8.58008 20.3105 8.58008 31.3301v571.28c0 11.04 -2.96973 21.8604 -8.58008 31.3301l-19.5898 33.0303h170.38l-19.5898 -33.0303c-5.61035 -9.49023 -8.58008 -20.3105 -8.58008 -31.3301v-208.76l108.68 62.75v146.01
c0 11.04 -2.96973 21.8604 -8.58984 31.3301l-19.5801 33.0303h170.37l-19.5801 -33.0303c-5.62012 -9.49023 -8.58984 -20.3105 -8.58984 -31.3301z" />
    <glyph glyph-name="I" unicode="I" horiz-adv-x="204" 
d="M158.763 635.58l-0.0205078 -571.17c0 -11.0703 2.96973 -21.9199 8.62012 -31.4297l19.5703 -32.9805h-170.38l19.5703 32.9697c5.65039 9.5 8.62012 20.3604 8.62012 31.4199v571.19c0 11.0596 -2.96973 21.9199 -8.62012 31.4199l-19.5703 32.9805h170.39
l-19.5596 -32.9805c-5.65039 -9.5 -8.62012 -20.3604 -8.62012 -31.4199z" />
    <glyph glyph-name="I" unicode="&#xcf;" horiz-adv-x="204" 
d="M158.763 635.58l-0.0205078 -571.17c0 -11.0703 2.96973 -21.9199 8.62012 -31.4297l19.5703 -32.9805h-170.38l19.5703 32.9697c5.65039 9.5 8.62012 20.3604 8.62012 31.4199v571.19c0 11.0596 -2.96973 21.9199 -8.62012 31.4199l-19.5703 32.9805h170.39
l-19.5596 -32.9805c-5.65039 -9.5 -8.62012 -20.3604 -8.62012 -31.4199z" />
    <glyph glyph-name="I" unicode="&#xce;" horiz-adv-x="204" 
d="M158.763 635.58l-0.0205078 -571.17c0 -11.0703 2.96973 -21.9199 8.62012 -31.4297l19.5703 -32.9805h-170.38l19.5703 32.9697c5.65039 9.5 8.62012 20.3604 8.62012 31.4199v571.19c0 11.0596 -2.96973 21.9199 -8.62012 31.4199l-19.5703 32.9805h170.39
l-19.5596 -32.9805c-5.65039 -9.5 -8.62012 -20.3604 -8.62012 -31.4199z" />
    <glyph glyph-name="I" unicode="&#xcd;" horiz-adv-x="204" 
d="M158.763 635.58l-0.0205078 -571.17c0 -11.0703 2.96973 -21.9199 8.62012 -31.4297l19.5703 -32.9805h-170.38l19.5703 32.9697c5.65039 9.5 8.62012 20.3604 8.62012 31.4199v571.19c0 11.0596 -2.96973 21.9199 -8.62012 31.4199l-19.5703 32.9805h170.39
l-19.5596 -32.9805c-5.65039 -9.5 -8.62012 -20.3604 -8.62012 -31.4199z" />
    <glyph glyph-name="I" unicode="&#xcc;" horiz-adv-x="204" 
d="M158.763 635.58l-0.0205078 -571.17c0 -11.0703 2.96973 -21.9199 8.62012 -31.4297l19.5703 -32.9805h-170.38l19.5703 32.9697c5.65039 9.5 8.62012 20.3604 8.62012 31.4199v571.19c0 11.0596 -2.96973 21.9199 -8.62012 31.4199l-19.5703 32.9805h170.39
l-19.5596 -32.9805c-5.65039 -9.5 -8.62012 -20.3604 -8.62012 -31.4199z" />
    <glyph glyph-name="J" unicode="J" horiz-adv-x="398" 
d="M353.303 700l28.1885 -0.0185547l-20.4199 -34.4199c-5.08984 -8.57031 -7.76953 -18.3398 -7.76953 -28.3096v-581.771c0 -30.6504 -24.8398 -55.4902 -55.4902 -55.4902h-225.77c-30.6504 0 -55.4902 24.8398 -55.4902 55.4902v180.21
c0 20.96 11.2002 40.3398 29.3506 50.8301l84.6797 48.8896v-193.2c0 -15.5703 12.6104 -28.1699 28.1807 -28.1699h52.3496c15.5596 0 28.1699 12.5996 28.1699 28.1699v495.06c0 9.96973 -2.66992 19.7295 -7.75977 28.2998l-20.4297 34.4297h142.21z" />
    <glyph glyph-name="K" unicode="K" horiz-adv-x="427" 
d="M381.473 393.08l0.000976562 -345.57l28.1699 -47.5098h-142.2v310.22c0 13.9102 -11.2803 25.1904 -25.1904 25.1904h-83.4902v-335.39h-142.21l28.1699 47.5098v604.96l-28.1699 47.5098h142.21v-206.55l119.25 206.55h131.67l-144.66 -250.56h60.0898
c31.1299 0 56.3604 -25.2305 56.3604 -56.3604z" />
    <glyph glyph-name="L" unicode="L" horiz-adv-x="398" 
d="M318.822 114.02c9.88965 0 19.6104 2.67969 28.1299 7.71973l34.5098 20.4697v-142.21h-364.91l20.4697 34.5098c5.05957 8.51953 7.71973 18.2197 7.71973 28.1201v574.74c0 9.90039 -2.67969 19.6201 -7.71973 28.1201l-20.4697 34.5098h170.38l-20.4697 -34.5098
c-5.05957 -8.51953 -7.71973 -18.2197 -7.71973 -28.1201v-523.35h160.08z" />
    <glyph glyph-name="M" unicode="M" horiz-adv-x="614" 
d="M568.912 652.47l0.000976562 -604.96l28.1699 -47.5098h-170.38l28.1699 47.5098v287.5l-104.66 -335.01h-86.79l-104.66 335.01v-287.5l28.1797 -47.5098h-170.39l28.1904 47.5098v604.96l-28.1904 47.5303h170.39l-18.46 -31.1299l138.34 -442.8l138.33 442.8
l-18.4502 31.1299h170.38z" />
    <glyph glyph-name="N" unicode="N" horiz-adv-x="427" 
d="M381.473 637.42l-0.0078125 -574.841c0 -9.86035 2.66016 -19.5303 7.67969 -28.0205l20.4902 -34.5596h-170.36l4.40039 7.44043c7.94043 13.4004 9.83008 29.5303 5.17969 44.3906l-90.0898 288.521v-277.78c0 -9.87012 2.66016 -19.54 7.67969 -28.0303
l20.4902 -34.5498h-170.38l20.4902 34.5498c5.01953 8.49023 7.67969 18.1602 7.67969 28.0303v574.83c0 9.87012 -2.66016 19.54 -7.67969 28.0303l-20.4902 34.5498h170.39l-4.86035 -8.19043c-7.94043 -13.4004 -9.83008 -29.5303 -5.17969 -44.3906l90.54 -289.96
v279.98c0 9.86035 -2.66016 19.5303 -7.69043 28.0205l-20.4805 34.5596h170.37l-20.4805 -34.5596c-5.03027 -8.49023 -7.69043 -18.1602 -7.69043 -28.0205z" />
    <glyph glyph-name="N" unicode="&#xd1;" horiz-adv-x="427" 
d="M381.473 637.42l-0.0078125 -574.841c0 -9.86035 2.66016 -19.5303 7.67969 -28.0205l20.4902 -34.5596h-170.36l4.40039 7.44043c7.94043 13.4004 9.83008 29.5303 5.17969 44.3906l-90.0898 288.521v-277.78c0 -9.87012 2.66016 -19.54 7.67969 -28.0303
l20.4902 -34.5498h-170.38l20.4902 34.5498c5.01953 8.49023 7.67969 18.1602 7.67969 28.0303v574.83c0 9.87012 -2.66016 19.54 -7.67969 28.0303l-20.4902 34.5498h170.39l-4.86035 -8.19043c-7.94043 -13.4004 -9.83008 -29.5303 -5.17969 -44.3906l90.54 -289.96
v279.98c0 9.86035 -2.66016 19.5303 -7.69043 28.0205l-20.4805 34.5596h170.37l-20.4805 -34.5596c-5.03027 -8.49023 -7.69043 -18.1602 -7.69043 -28.0205z" />
    <glyph glyph-name="O" unicode="O" 
d="M80.4629 700h208.93c35.29 0 63.9102 -28.6201 63.9102 -63.9102v-572.19c0 -35.2998 -28.6201 -63.9102 -63.9102 -63.9102h-208.93c-35.29 0 -63.9102 28.6104 -63.9102 63.9102v572.19c0 35.29 28.6201 63.9102 63.9102 63.9102zM213.723 114.02
c14.0996 0 25.5498 11.4404 25.5498 25.5605v420.84c0 14.0996 -11.4297 25.5498 -25.5498 25.5498h-57.5898c-14.0996 0 -25.5498 -11.4297 -25.5498 -25.5498v-420.85c0 -14.1104 11.4502 -25.5508 25.5498 -25.5508h57.5898z" />
    <glyph glyph-name="O" unicode="&#xd8;" 
d="M80.4629 700h208.93c35.29 0 63.9102 -28.6201 63.9102 -63.9102v-572.19c0 -35.2998 -28.6201 -63.9102 -63.9102 -63.9102h-208.93c-35.29 0 -63.9102 28.6104 -63.9102 63.9102v572.19c0 35.29 28.6201 63.9102 63.9102 63.9102zM213.723 114.02
c14.0996 0 25.5498 11.4404 25.5498 25.5605v420.84c0 14.0996 -11.4297 25.5498 -25.5498 25.5498h-57.5898c-14.0996 0 -25.5498 -11.4297 -25.5498 -25.5498v-420.85c0 -14.1104 11.4502 -25.5508 25.5498 -25.5508h57.5898z" />
    <glyph glyph-name="O" unicode="&#xd5;" 
d="M80.4629 700h208.93c35.29 0 63.9102 -28.6201 63.9102 -63.9102v-572.19c0 -35.2998 -28.6201 -63.9102 -63.9102 -63.9102h-208.93c-35.29 0 -63.9102 28.6104 -63.9102 63.9102v572.19c0 35.29 28.6201 63.9102 63.9102 63.9102zM213.723 114.02
c14.0996 0 25.5498 11.4404 25.5498 25.5605v420.84c0 14.0996 -11.4297 25.5498 -25.5498 25.5498h-57.5898c-14.0996 0 -25.5498 -11.4297 -25.5498 -25.5498v-420.85c0 -14.1104 11.4502 -25.5508 25.5498 -25.5508h57.5898z" />
    <glyph glyph-name="O" unicode="&#xd4;" 
d="M80.4629 700h208.93c35.29 0 63.9102 -28.6201 63.9102 -63.9102v-572.19c0 -35.2998 -28.6201 -63.9102 -63.9102 -63.9102h-208.93c-35.29 0 -63.9102 28.6104 -63.9102 63.9102v572.19c0 35.29 28.6201 63.9102 63.9102 63.9102zM213.723 114.02
c14.0996 0 25.5498 11.4404 25.5498 25.5605v420.84c0 14.0996 -11.4297 25.5498 -25.5498 25.5498h-57.5898c-14.0996 0 -25.5498 -11.4297 -25.5498 -25.5498v-420.85c0 -14.1104 11.4502 -25.5508 25.5498 -25.5508h57.5898z" />
    <glyph glyph-name="O" unicode="&#xd3;" 
d="M80.4629 700h208.93c35.29 0 63.9102 -28.6201 63.9102 -63.9102v-572.19c0 -35.2998 -28.6201 -63.9102 -63.9102 -63.9102h-208.93c-35.29 0 -63.9102 28.6104 -63.9102 63.9102v572.19c0 35.29 28.6201 63.9102 63.9102 63.9102zM213.723 114.02
c14.0996 0 25.5498 11.4404 25.5498 25.5605v420.84c0 14.0996 -11.4297 25.5498 -25.5498 25.5498h-57.5898c-14.0996 0 -25.5498 -11.4297 -25.5498 -25.5498v-420.85c0 -14.1104 11.4502 -25.5508 25.5498 -25.5508h57.5898z" />
    <glyph glyph-name="O" unicode="&#xd2;" 
d="M80.4629 700h208.93c35.29 0 63.9102 -28.6201 63.9102 -63.9102v-572.19c0 -35.2998 -28.6201 -63.9102 -63.9102 -63.9102h-208.93c-35.29 0 -63.9102 28.6104 -63.9102 63.9102v572.19c0 35.29 28.6201 63.9102 63.9102 63.9102zM213.723 114.02
c14.0996 0 25.5498 11.4404 25.5498 25.5605v420.84c0 14.0996 -11.4297 25.5498 -25.5498 25.5498h-57.5898c-14.0996 0 -25.5498 -11.4297 -25.5498 -25.5498v-420.85c0 -14.1104 11.4502 -25.5508 25.5498 -25.5508h57.5898z" />
    <glyph glyph-name="P" unicode="P" horiz-adv-x="398" 
d="M323.833 700c31.8301 0 57.6299 -25.8105 57.6299 -57.6406v-249.33c0 -31.8203 -25.7998 -57.6201 -57.6299 -57.6201h-165.07v-272.09c0 -10.3398 2.79004 -20.5 8.05957 -29.4004l20.1104 -33.9199h-170.38l20.1104 33.9199
c5.26953 8.90039 8.05957 19.0605 8.05957 29.4004v573.36c0 10.3398 -2.79004 20.5 -8.05957 29.4004l-20.1104 33.9199h307.28zM267.443 478.219v78.9502c0 15.9102 -12.8896 28.7998 -28.7998 28.7998h-79.9004v-136.55h79.9004
c15.9102 0 28.7998 12.8896 28.7998 28.7998z" />
    <glyph glyph-name="Q" unicode="Q" 
d="M239.253 700l58.6094 -0.0205078c30.5996 0 55.4199 -24.7998 55.4199 -55.4199v-589.13c0 -30.5996 -24.7998 -55.4297 -55.4199 -55.4297h-55.9297v-36.0195c0 -19.7998 -10.5596 -38.0996 -27.7197 -48l-86.2998 -49.8301v133.87h-55.9404
c-30.5996 0 -55.4199 24.8096 -55.4199 55.4199v589.14c0 30.5996 24.8096 55.4199 55.4199 55.4199h167.28zM213.892 114.02c14 0 25.3604 11.3604 25.3604 25.3604v421.22c0 14.0098 -11.3604 25.3701 -25.3604 25.3701h-57.9697
c-14.0098 0 -25.3701 -11.3604 -25.3701 -25.3701v-421.22c0 -14 11.3604 -25.3604 25.3701 -25.3604h57.9697z" />
    <glyph glyph-name="R" unicode="R" horiz-adv-x="427" 
d="M389.373 34.21l20.2617 -34.1992h-170.38l20.29 34.21c5.16016 8.70996 7.87988 18.6396 7.87988 28.7695v250.64c0 12.0303 -9.75 21.7803 -21.7803 21.7803h-86.9004v-272.44c0 -10.1299 2.71973 -20.0596 7.89941 -28.7598l20.29 -34.2197h-170.38l20.29 34.2197
c5.16016 8.7002 7.87988 18.6299 7.87988 28.7598v574.05c0 10.1201 -2.71973 20.0605 -7.87988 28.7607l-20.29 34.21h308.22c31.3203 0 56.7002 -25.3799 56.7197 -56.7002v-194.5c0 -31.1299 -58.0898 -56.3604 -89.21 -56.3604c31.1201 0 89.21 -25.2305 89.21 -56.3604
v-273.1c0 -10.1299 2.70996 -20.0596 7.87988 -28.7598zM158.765 449.431h86.8896c12.04 0 21.79 9.75 21.79 21.79v92.9502c0 12.04 -9.75 21.79 -21.79 21.79h-86.8896v-136.53z" />
    <glyph glyph-name="S" unicode="S" 
d="M256.492 700l39.8389 -0.0195312c31.46 0 56.9502 -25.4902 56.9502 -56.9502v-85.2402l-33.0898 19.6201c-9.44043 5.59961 -20.21 8.55957 -31.2002 8.55957h-131.56c-14.8301 0 -26.8604 -12.0195 -26.8604 -26.8594v-85.0303
c0 -13.6201 11.0498 -24.6602 24.6602 -24.6602h141.1c31.46 0 56.9502 -25.4902 56.9502 -56.9502v-335.53c0 -31.46 -25.4902 -56.9502 -56.9502 -56.9502h-222.83c-31.4502 0 -56.9502 25.4902 -56.9502 56.9502v135.96c0 20.3604 10.8701 39.1602 28.4805 49.3398
l85.5498 49.4004v-149.94c0 -15.29 12.4004 -27.6797 27.6807 -27.6797h55.8096c13.9199 0 25.2002 11.2803 25.2002 25.2002v169.36c0 14.8398 -12.0195 26.8594 -26.8594 26.8594h-138.89c-31.46 0 -56.9502 25.4902 -56.9502 56.9502v250.66
c0 31.4502 25.4902 56.9502 56.9502 56.9502h182.97z" />
    <glyph glyph-name="T" unicode="T" 
d="M16.5527 700l336.73 -0.000976562v-142.22l-34.0098 20.1699c-8.83984 5.25977 -18.9199 8.01953 -29.1895 8.01953h-48.1504v-522.76c0 -10.2803 2.76953 -20.3604 8.00977 -29.1904l20.1699 -34.0195h-170.37l20.1699 34.0195c5.24023 8.83008 8 18.9102 8 29.1904
v522.771h-48.1504c-10.2803 0 -20.3604 -2.76953 -29.1904 -8.00977l-34.0195 -20.1797v142.21z" />
    <glyph glyph-name="U" unicode="U" horiz-adv-x="427" 
d="M381.473 700l28.1387 -0.0205078l-19.6201 -33.0801c-5.59961 -9.44043 -8.5498 -20.2207 -8.5498 -31.2109v-579.25c0 -31.1699 -25.2695 -56.4395 -56.4395 -56.4395h-223.84c-31.1699 0 -56.4395 25.2695 -56.4395 56.4395v579.25
c0 10.9902 -2.9502 21.7705 -8.5498 31.2109l-19.6201 33.0801h170.38l-19.6201 -33.0801c-5.59961 -9.44043 -8.5498 -20.2207 -8.5498 -31.2109v-495.35c0 -14.5303 11.7695 -26.2998 26.2998 -26.2998h56.0801c14.5303 0 26.2998 11.7695 26.2998 26.2998v495.37
c0 10.9805 -2.95996 21.7705 -8.55957 31.2109l-19.6104 33.0801h142.2z" />
    <glyph glyph-name="U" unicode="&#xdc;" horiz-adv-x="427" 
d="M381.473 700l28.1387 -0.0205078l-19.6201 -33.0801c-5.59961 -9.44043 -8.5498 -20.2207 -8.5498 -31.2109v-579.25c0 -31.1699 -25.2695 -56.4395 -56.4395 -56.4395h-223.84c-31.1699 0 -56.4395 25.2695 -56.4395 56.4395v579.25
c0 10.9902 -2.9502 21.7705 -8.5498 31.2109l-19.6201 33.0801h170.38l-19.6201 -33.0801c-5.59961 -9.44043 -8.5498 -20.2207 -8.5498 -31.2109v-495.35c0 -14.5303 11.7695 -26.2998 26.2998 -26.2998h56.0801c14.5303 0 26.2998 11.7695 26.2998 26.2998v495.37
c0 10.9805 -2.95996 21.7705 -8.55957 31.2109l-19.6104 33.0801h142.2z" />
    <glyph glyph-name="U" unicode="&#xdb;" horiz-adv-x="427" 
d="M381.473 700l28.1387 -0.0205078l-19.6201 -33.0801c-5.59961 -9.44043 -8.5498 -20.2207 -8.5498 -31.2109v-579.25c0 -31.1699 -25.2695 -56.4395 -56.4395 -56.4395h-223.84c-31.1699 0 -56.4395 25.2695 -56.4395 56.4395v579.25
c0 10.9902 -2.9502 21.7705 -8.5498 31.2109l-19.6201 33.0801h170.38l-19.6201 -33.0801c-5.59961 -9.44043 -8.5498 -20.2207 -8.5498 -31.2109v-495.35c0 -14.5303 11.7695 -26.2998 26.2998 -26.2998h56.0801c14.5303 0 26.2998 11.7695 26.2998 26.2998v495.37
c0 10.9805 -2.95996 21.7705 -8.55957 31.2109l-19.6104 33.0801h142.2z" />
    <glyph glyph-name="U" unicode="&#xda;" horiz-adv-x="427" 
d="M381.473 700l28.1387 -0.0205078l-19.6201 -33.0801c-5.59961 -9.44043 -8.5498 -20.2207 -8.5498 -31.2109v-579.25c0 -31.1699 -25.2695 -56.4395 -56.4395 -56.4395h-223.84c-31.1699 0 -56.4395 25.2695 -56.4395 56.4395v579.25
c0 10.9902 -2.9502 21.7705 -8.5498 31.2109l-19.6201 33.0801h170.38l-19.6201 -33.0801c-5.59961 -9.44043 -8.5498 -20.2207 -8.5498 -31.2109v-495.35c0 -14.5303 11.7695 -26.2998 26.2998 -26.2998h56.0801c14.5303 0 26.2998 11.7695 26.2998 26.2998v495.37
c0 10.9805 -2.95996 21.7705 -8.55957 31.2109l-19.6104 33.0801h142.2z" />
    <glyph glyph-name="U" unicode="&#xd9;" horiz-adv-x="427" 
d="M381.473 700l28.1387 -0.0205078l-19.6201 -33.0801c-5.59961 -9.44043 -8.5498 -20.2207 -8.5498 -31.2109v-579.25c0 -31.1699 -25.2695 -56.4395 -56.4395 -56.4395h-223.84c-31.1699 0 -56.4395 25.2695 -56.4395 56.4395v579.25
c0 10.9902 -2.9502 21.7705 -8.5498 31.2109l-19.6201 33.0801h170.38l-19.6201 -33.0801c-5.59961 -9.44043 -8.5498 -20.2207 -8.5498 -31.2109v-495.35c0 -14.5303 11.7695 -26.2998 26.2998 -26.2998h56.0801c14.5303 0 26.2998 11.7695 26.2998 26.2998v495.37
c0 10.9805 -2.95996 21.7705 -8.55957 31.2109l-19.6104 33.0801h142.2z" />
    <glyph glyph-name="V" unicode="V" horiz-adv-x="427" 
d="M239.282 700l170.38 0.00195312l-23 -38.7803c-3.42969 -5.78027 -5.75977 -12.1299 -6.87988 -18.7598l-108.65 -642.46h-114.95l-109.75 642.51c-1.12012 6.59961 -3.4502 12.9297 -6.86035 18.6797l-23.0195 38.8096h170.39l-17.9199 -30.2402
c-6.62012 -11.1602 -9.0498 -24.2998 -6.87012 -37.0898l51.2402 -299.92l50.7305 299.97c2.16992 12.7695 -0.280273 25.8799 -6.87988 37.0098z" />
    <glyph glyph-name="W" unicode="W" horiz-adv-x="479" 
d="M434.272 634.99l0.0214844 -569.98c0 -11.4404 3.08008 -22.6807 8.92969 -32.5303l19.25 -32.4805h-170.41c6.33984 10.6699 7.83008 23.5098 4.13965 35.3496l-56.6904 181.52l-56.6904 -181.52c-3.69043 -11.8398 -2.18066 -24.6895 4.13965 -35.3496h-170.41
l19.2695 32.4805c5.84961 9.84961 8.92969 21.0801 8.92969 32.5303v569.98c0 11.4404 -3.08008 22.6904 -8.92969 32.54l-19.25 32.4697h170.39l-19.2598 -32.4697c-5.83984 -9.84961 -8.92969 -21.0801 -8.92969 -32.54v-311.55l39.3496 126h82.7803l39.3496 -126v311.55
c0 11.4404 -3.08008 22.6904 -8.92969 32.54l-19.2598 32.4697h170.4l-19.2598 -32.4697c-5.83984 -9.84961 -8.92969 -21.0801 -8.92969 -32.54z" />
    <glyph glyph-name="X" unicode="X" horiz-adv-x="427" 
d="M270.183 350l109.568 -297.639c1.17969 -3.21973 2.66016 -6.30957 4.40039 -9.25977l25.54 -43.0801h-170.39l13.4297 22.6396c9.32031 15.7402 11.0801 34.8398 4.75977 52.0098l-44.3301 120.43l-0.0302734 -0.0800781l-0.0302734 0.0800781l-44.3301 -120.43
c-6.32031 -17.1699 -4.56055 -36.2803 4.75977 -52.0107l13.4297 -22.6396h-170.39l25.54 43.0801c1.74023 2.94043 3.2207 6.04004 4.40039 9.25977l109.55 297.64l-109.55 297.65c-1.17969 3.20996 -2.66016 6.32031 -4.40039 9.25l-25.5596 43.0801h170.39
l-13.4199 -22.6396c-9.33008 -15.7402 -11.0898 -34.8301 -4.76953 -52.0098l44.3301 -120.43l0.0302734 0.0800781l0.0400391 -0.0800781l44.3203 120.43c6.32031 17.1797 4.57031 36.29 -4.75977 52.0098l-13.4297 22.6396h170.4l-25.5498 -43.0801
c-1.74023 -2.92969 -3.2207 -6.04004 -4.40039 -9.25z" />
    <glyph glyph-name="Y" unicode="Y" horiz-adv-x="427" 
d="M239.282 701.02h170.38l-25.1699 -42.4902c-1.98047 -3.34961 -3.66016 -6.87988 -5 -10.5195l-105.35 -286.22c-2.62988 -7.12988 -3.97949 -14.6602 -3.97949 -22.2598v-264.93c0 -11.4697 3.08984 -22.7197 8.92969 -32.5898l19.25 -32.4404h-170.45l19.2402 32.4404
c5.84961 9.87012 8.92969 21.1201 8.92969 32.5898v264.93c0 7.58008 -1.33984 15.1299 -3.96973 22.2598l-105.33 286.22c-1.34961 3.66016 -3.01953 7.16992 -5.00977 10.5195l-25.2002 42.4902h170.39l-12.6699 -21.3799
c-9.82031 -16.5303 -11.6406 -36.6104 -5.01074 -54.6504l43.8203 -119.06l0.0302734 0.0800781l0.0400391 -0.0800781l43.8096 119.06c6.63965 18.04 4.7998 38.1201 -5 54.6504z" />
    <glyph glyph-name="Y" unicode="&#xdd;" horiz-adv-x="427" 
d="M239.282 701.02h170.38l-25.1699 -42.4902c-1.98047 -3.34961 -3.66016 -6.87988 -5 -10.5195l-105.35 -286.22c-2.62988 -7.12988 -3.97949 -14.6602 -3.97949 -22.2598v-264.93c0 -11.4697 3.08984 -22.7197 8.92969 -32.5898l19.25 -32.4404h-170.45l19.2402 32.4404
c5.84961 9.87012 8.92969 21.1201 8.92969 32.5898v264.93c0 7.58008 -1.33984 15.1299 -3.96973 22.2598l-105.33 286.22c-1.34961 3.66016 -3.01953 7.16992 -5.00977 10.5195l-25.2002 42.4902h170.39l-12.6699 -21.3799
c-9.82031 -16.5303 -11.6406 -36.6104 -5.01074 -54.6504l43.8203 -119.06l0.0302734 0.0800781l0.0400391 -0.0800781l43.8096 119.06c6.63965 18.04 4.7998 38.1201 -5 54.6504z" />
    <glyph glyph-name="Z" unicode="Z" 
d="M353.303 700l-0.000976562 -100.54c0 -8.87988 -1.96973 -17.6602 -5.75977 -25.6904l-216.96 -459.75h159.19c10.4902 0 20.7803 2.82031 29.79 8.18066l33.7402 20.0098v-142.21h-336.729v100.54c0 8.87988 1.96973 17.6699 5.75977 25.6895l216.95 459.75h-159.2
c-10.4902 0 -20.7803 -2.82031 -29.79 -8.16992l-33.7402 -20.0195v142.21h336.75z" />
    <glyph glyph-name="bracketleft" unicode="[" horiz-adv-x="202" 
d="M184.912 585.96h-54.3398v-471.93h54.3398v-114.03h-168.36v699.99h168.36v-114.03z" />
    <glyph glyph-name="backslash" unicode="\" horiz-adv-x="427" 
d="M239.282 0l13.0898 22.0801c9.5498 16.0996 11.3398 35.6592 4.87012 53.2393l-210.61 572.25c-1.21973 3.26953 -2.70996 6.41992 -4.5 9.42969l-25.5596 42.9902h170.37l-14.3301 -24.21c-8.71973 -14.7402 -10.3398 -32.6406 -4.42969 -48.7109l211.35 -574.21
c1.32031 -3.55957 2.94043 -6.98926 4.88086 -10.2588l25.2695 -42.5996h-170.4z" />
    <glyph glyph-name="bracketright" unicode="]" horiz-adv-x="202" 
d="M16.5527 699.99h168.36v-699.99h-168.36v114.03h54.3398v471.93h-54.3398v114.03z" />
    <glyph glyph-name="asciicircum" unicode="^" horiz-adv-x="522" 
d="M307.963 699.99l196.89 -249.65h-146.35l-97.8096 124l-97.7998 -124h-146.34l196.89 249.65h94.5195z" />
    <glyph glyph-name="underscore" unicode="_" 
d="M353.303 0h-336.75v114.03h336.75v-114.03z" />
    <glyph glyph-name="grave" unicode="`" horiz-adv-x="204" 
d="M16.5527 699.99h124.16l46.6602 -114.03h-124.16z" />
    <glyph glyph-name="a" unicode="a" horiz-adv-x="427" 
d="M381.473 636.6v-573.209c0 -10.3896 2.79004 -20.5996 8.09961 -29.54l20.0703 -33.8496h-170.37l20.0703 33.8496c5.30957 8.9502 8.09961 19.1504 8.09961 29.54v294.57l-108.68 -62.7402v-231.83c0 -10.3896 2.79004 -20.5996 8.08984 -29.54l20.0801 -33.8496
h-170.38l20.0801 33.8496c5.2998 8.9502 8.08984 19.1504 8.08984 29.54v573.21c0 10.3896 -2.79004 20.5996 -8.08984 29.5293l-20.0801 33.8496h393.09l-20.0703 -33.8496c-5.30957 -8.9502 -8.09961 -19.1406 -8.09961 -29.5303zM158.763 426.881l108.68 62.75v96.3398
h-108.68v-159.09z" />
    <glyph glyph-name="a" unicode="&#xe5;" horiz-adv-x="427" 
d="M381.473 636.6v-573.209c0 -10.3896 2.79004 -20.5996 8.09961 -29.54l20.0703 -33.8496h-170.37l20.0703 33.8496c5.30957 8.9502 8.09961 19.1504 8.09961 29.54v294.57l-108.68 -62.7402v-231.83c0 -10.3896 2.79004 -20.5996 8.08984 -29.54l20.0801 -33.8496
h-170.38l20.0801 33.8496c5.2998 8.9502 8.08984 19.1504 8.08984 29.54v573.21c0 10.3896 -2.79004 20.5996 -8.08984 29.5293l-20.0801 33.8496h393.09l-20.0703 -33.8496c-5.30957 -8.9502 -8.09961 -19.1406 -8.09961 -29.5303zM158.763 426.881l108.68 62.75v96.3398
h-108.68v-159.09z" />
    <glyph glyph-name="a" unicode="&#xe4;" horiz-adv-x="427" 
d="M381.473 636.6v-573.209c0 -10.3896 2.79004 -20.5996 8.09961 -29.54l20.0703 -33.8496h-170.37l20.0703 33.8496c5.30957 8.9502 8.09961 19.1504 8.09961 29.54v294.57l-108.68 -62.7402v-231.83c0 -10.3896 2.79004 -20.5996 8.08984 -29.54l20.0801 -33.8496
h-170.38l20.0801 33.8496c5.2998 8.9502 8.08984 19.1504 8.08984 29.54v573.21c0 10.3896 -2.79004 20.5996 -8.08984 29.5293l-20.0801 33.8496h393.09l-20.0703 -33.8496c-5.30957 -8.9502 -8.09961 -19.1406 -8.09961 -29.5303zM158.763 426.881l108.68 62.75v96.3398
h-108.68v-159.09z" />
    <glyph glyph-name="a" unicode="&#xe3;" horiz-adv-x="427" 
d="M381.473 636.6v-573.209c0 -10.3896 2.79004 -20.5996 8.09961 -29.54l20.0703 -33.8496h-170.37l20.0703 33.8496c5.30957 8.9502 8.09961 19.1504 8.09961 29.54v294.57l-108.68 -62.7402v-231.83c0 -10.3896 2.79004 -20.5996 8.08984 -29.54l20.0801 -33.8496
h-170.38l20.0801 33.8496c5.2998 8.9502 8.08984 19.1504 8.08984 29.54v573.21c0 10.3896 -2.79004 20.5996 -8.08984 29.5293l-20.0801 33.8496h393.09l-20.0703 -33.8496c-5.30957 -8.9502 -8.09961 -19.1406 -8.09961 -29.5303zM158.763 426.881l108.68 62.75v96.3398
h-108.68v-159.09z" />
    <glyph glyph-name="a" unicode="&#xe2;" horiz-adv-x="427" 
d="M381.473 636.6v-573.209c0 -10.3896 2.79004 -20.5996 8.09961 -29.54l20.0703 -33.8496h-170.37l20.0703 33.8496c5.30957 8.9502 8.09961 19.1504 8.09961 29.54v294.57l-108.68 -62.7402v-231.83c0 -10.3896 2.79004 -20.5996 8.08984 -29.54l20.0801 -33.8496
h-170.38l20.0801 33.8496c5.2998 8.9502 8.08984 19.1504 8.08984 29.54v573.21c0 10.3896 -2.79004 20.5996 -8.08984 29.5293l-20.0801 33.8496h393.09l-20.0703 -33.8496c-5.30957 -8.9502 -8.09961 -19.1406 -8.09961 -29.5303zM158.763 426.881l108.68 62.75v96.3398
h-108.68v-159.09z" />
    <glyph glyph-name="a" unicode="&#xe1;" horiz-adv-x="427" 
d="M381.473 636.6v-573.209c0 -10.3896 2.79004 -20.5996 8.09961 -29.54l20.0703 -33.8496h-170.37l20.0703 33.8496c5.30957 8.9502 8.09961 19.1504 8.09961 29.54v294.57l-108.68 -62.7402v-231.83c0 -10.3896 2.79004 -20.5996 8.08984 -29.54l20.0801 -33.8496
h-170.38l20.0801 33.8496c5.2998 8.9502 8.08984 19.1504 8.08984 29.54v573.21c0 10.3896 -2.79004 20.5996 -8.08984 29.5293l-20.0801 33.8496h393.09l-20.0703 -33.8496c-5.30957 -8.9502 -8.09961 -19.1406 -8.09961 -29.5303zM158.763 426.881l108.68 62.75v96.3398
h-108.68v-159.09z" />
    <glyph glyph-name="a" unicode="&#xe0;" horiz-adv-x="427" 
d="M381.473 636.6v-573.209c0 -10.3896 2.79004 -20.5996 8.09961 -29.54l20.0703 -33.8496h-170.37l20.0703 33.8496c5.30957 8.9502 8.09961 19.1504 8.09961 29.54v294.57l-108.68 -62.7402v-231.83c0 -10.3896 2.79004 -20.5996 8.08984 -29.54l20.0801 -33.8496
h-170.38l20.0801 33.8496c5.2998 8.9502 8.08984 19.1504 8.08984 29.54v573.21c0 10.3896 -2.79004 20.5996 -8.08984 29.5293l-20.0801 33.8496h393.09l-20.0703 -33.8496c-5.30957 -8.9502 -8.09961 -19.1406 -8.09961 -29.5303zM158.763 426.881l108.68 62.75v96.3398
h-108.68v-159.09z" />
    <glyph glyph-name="b" unicode="b" horiz-adv-x="398" 
d="M16.5527 700h301.238c35.1699 0 63.6699 -28.5 63.6699 -63.6699v-187.55c0 -31.1201 -25.2402 -56.3604 -56.3604 -56.3604c31.1201 0 56.3604 -25.2305 56.3604 -56.3604v-271.29c0 -35.7695 -29 -64.7695 -64.7695 -64.7695h-300.14l20 33.71
c5.36035 9.04004 8.19043 19.3496 8.19043 29.8594v571.65c0 11.29 -3.05957 22.4102 -8.81934 32.1299zM158.761 114.02h80.1006c15.79 0 28.5898 12.8096 28.5898 28.5996v164.89c0 15.4199 -12.4902 27.9004 -27.8906 27.9004h-80.7998v-221.39zM239.562 449.439
c15.4004 0 27.8799 12.4805 27.8896 27.8809v80.0498c0 15.79 -12.7998 28.5996 -28.5898 28.5996h-80.0996v-136.53h80.7998z" />
    <glyph glyph-name="c" unicode="c" 
d="M223.643 700l65.8096 -0.0185547c35.2695 0 63.8496 -28.5801 63.8496 -63.8398v-78.3496l-32.8701 19.4902c-9.58008 5.67969 -20.54 8.68945 -31.6797 8.68945h-129.37c-15.9102 0 -28.8105 -12.9102 -28.8105 -28.8203v-414.33
c0 -15.9102 12.9004 -28.8203 28.8105 -28.8203h129.37c11.1396 0 22.0996 3.00977 31.6797 8.68945l32.8701 19.4902v-78.3496c0 -35.2598 -28.5801 -63.8398 -63.8496 -63.8398h-210.79c-34.2998 0 -62.1094 27.8096 -62.1094 62.0996v575.8
c0 34.2998 27.8096 62.1094 62.1094 62.1094h144.98z" />
    <glyph glyph-name="c" unicode="&#xe7;" 
d="M223.643 700l65.8096 -0.0185547c35.2695 0 63.8496 -28.5801 63.8496 -63.8398v-78.3496l-32.8701 19.4902c-9.58008 5.67969 -20.54 8.68945 -31.6797 8.68945h-129.37c-15.9102 0 -28.8105 -12.9102 -28.8105 -28.8203v-414.33
c0 -15.9102 12.9004 -28.8203 28.8105 -28.8203h129.37c11.1396 0 22.0996 3.00977 31.6797 8.68945l32.8701 19.4902v-78.3496c0 -35.2598 -28.5801 -63.8398 -63.8496 -63.8398h-210.79c-34.2998 0 -62.1094 27.8096 -62.1094 62.0996v575.8
c0 34.2998 27.8096 62.1094 62.1094 62.1094h144.98z" />
    <glyph glyph-name="d" unicode="d" horiz-adv-x="398" 
d="M267.452 700l58.1895 -0.0195312c30.8301 0 55.8203 -24.9805 55.8203 -55.8105v-588.35c0 -30.8301 -24.9902 -55.8203 -55.8203 -55.8203h-309.09l20.3701 34.3301c5.12988 8.62012 7.82031 18.4697 7.82031 28.4795v574.36
c0 10.0303 -2.70996 19.8701 -7.82031 28.4902l-20.3701 34.3398h250.9zM241.071 114.021c14.5596 0 26.3799 11.8193 26.3799 26.3994v419.16c0 14.5703 -11.7998 26.3906 -26.3799 26.3906h-82.2998v-471.95h82.2998z" />
    <glyph glyph-name="e" unicode="e" horiz-adv-x="398" 
d="M16.5527 700l364.91 -0.00195312v-142.21l-34.71 20.5898c-8.37012 4.95996 -17.9404 7.58984 -27.6807 7.58984h-160.31v-136.53h103.31c9.74023 0 19.3105 2.61035 27.6807 7.59082l34.71 20.5801v-170.38l-34.71 20.5898
c-8.37012 4.95996 -17.9404 7.58984 -27.6807 7.58984h-103.31v-221.36h160.31c9.74023 0 19.3105 2.61035 27.6807 7.59082l34.71 20.5801v-142.2h-364.91l20.5898 34.7002c4.95996 8.37988 7.58008 17.9502 7.58008 27.6807v575.21
c0 9.74023 -2.61035 19.3105 -7.58008 27.6807z" />
    <glyph glyph-name="e" unicode="&#xeb;" horiz-adv-x="398" 
d="M16.5527 700l364.91 -0.00195312v-142.21l-34.71 20.5898c-8.37012 4.95996 -17.9404 7.58984 -27.6807 7.58984h-160.31v-136.53h103.31c9.74023 0 19.3105 2.61035 27.6807 7.59082l34.71 20.5801v-170.38l-34.71 20.5898
c-8.37012 4.95996 -17.9404 7.58984 -27.6807 7.58984h-103.31v-221.36h160.31c9.74023 0 19.3105 2.61035 27.6807 7.59082l34.71 20.5801v-142.2h-364.91l20.5898 34.7002c4.95996 8.37988 7.58008 17.9502 7.58008 27.6807v575.21
c0 9.74023 -2.61035 19.3105 -7.58008 27.6807z" />
    <glyph glyph-name="e" unicode="&#xea;" horiz-adv-x="398" 
d="M16.5527 700l364.91 -0.00195312v-142.21l-34.71 20.5898c-8.37012 4.95996 -17.9404 7.58984 -27.6807 7.58984h-160.31v-136.53h103.31c9.74023 0 19.3105 2.61035 27.6807 7.59082l34.71 20.5801v-170.38l-34.71 20.5898
c-8.37012 4.95996 -17.9404 7.58984 -27.6807 7.58984h-103.31v-221.36h160.31c9.74023 0 19.3105 2.61035 27.6807 7.59082l34.71 20.5801v-142.2h-364.91l20.5898 34.7002c4.95996 8.37988 7.58008 17.9502 7.58008 27.6807v575.21
c0 9.74023 -2.61035 19.3105 -7.58008 27.6807z" />
    <glyph glyph-name="e" unicode="&#xe9;" horiz-adv-x="398" 
d="M16.5527 700l364.91 -0.00195312v-142.21l-34.71 20.5898c-8.37012 4.95996 -17.9404 7.58984 -27.6807 7.58984h-160.31v-136.53h103.31c9.74023 0 19.3105 2.61035 27.6807 7.59082l34.71 20.5801v-170.38l-34.71 20.5898
c-8.37012 4.95996 -17.9404 7.58984 -27.6807 7.58984h-103.31v-221.36h160.31c9.74023 0 19.3105 2.61035 27.6807 7.59082l34.71 20.5801v-142.2h-364.91l20.5898 34.7002c4.95996 8.37988 7.58008 17.9502 7.58008 27.6807v575.21
c0 9.74023 -2.61035 19.3105 -7.58008 27.6807z" />
    <glyph glyph-name="e" unicode="&#xe8;" horiz-adv-x="398" 
d="M16.5527 700l364.91 -0.00195312v-142.21l-34.71 20.5898c-8.37012 4.95996 -17.9404 7.58984 -27.6807 7.58984h-160.31v-136.53h103.31c9.74023 0 19.3105 2.61035 27.6807 7.59082l34.71 20.5801v-170.38l-34.71 20.5898
c-8.37012 4.95996 -17.9404 7.58984 -27.6807 7.58984h-103.31v-221.36h160.31c9.74023 0 19.3105 2.61035 27.6807 7.59082l34.71 20.5801v-142.2h-364.91l20.5898 34.7002c4.95996 8.37988 7.58008 17.9502 7.58008 27.6807v575.21
c0 9.74023 -2.61035 19.3105 -7.58008 27.6807z" />
    <glyph glyph-name="f" unicode="f" horiz-adv-x="398" 
d="M16.5527 700l364.919 -0.00195312v-142.22l-32.7695 19.4404c-9.65039 5.73047 -20.6699 8.75 -31.9004 8.75h-158.06v-136.55h101.05c11.2305 0 22.2402 3.01953 31.9004 8.75l32.7695 19.4404v-170.39l-32.7695 19.4404c-9.66016 5.73047 -20.6699 8.75 -31.9004 8.75
h-101.05v-270.76c0 -11.2305 3.01953 -22.2402 8.75 -31.9004l19.4404 -32.7598h-170.38l19.4404 32.7598c5.73047 9.66016 8.75 20.6699 8.75 31.9004v570.68c0 11.2305 -3.01953 22.25 -8.75 31.9004z" />
    <glyph glyph-name="g" unicode="g" 
d="M323.652 447.93l-84.3691 -48.7109v186.75h-108.68v-471.95h108.68v60.8604l-0.00976562 66.9004l0.00976562 0.0302734l-68.2402 39.4004l182.26 105.24v-520.33l-114.03 65.8301v68.04h-167.2c-30.6602 0 -55.5205 24.8496 -55.5205 55.5195v588.97
c0 30.6602 24.8604 55.5205 55.5205 55.5205h225.71c30.6602 0 55.5205 -24.8604 55.5205 -55.5205v-145.18c0 -21.2002 -11.29 -40.7803 -29.6504 -51.3701z" />
    <glyph glyph-name="h" unicode="h" horiz-adv-x="427" 
d="M381.473 635.64v-571.277c0 -11.0303 2.96973 -21.8506 8.58984 -31.3311l19.5801 -33.0303h-170.37l19.5801 33.0303c5.62012 9.49023 8.58984 20.3105 8.58984 31.3301v293.6l-108.68 -62.7402v-230.86c0 -11.0303 2.96973 -21.8506 8.58008 -31.3311l19.5898 -33.0303
h-170.38l19.5898 33.0303c5.61035 9.49023 8.58008 20.3105 8.58008 31.3301v571.28c0 11.04 -2.96973 21.8604 -8.58008 31.3301l-19.5898 33.0303h170.38l-19.5898 -33.0303c-5.61035 -9.49023 -8.58008 -20.3105 -8.58008 -31.3301v-208.76l108.68 62.75v146.01
c0 11.04 -2.96973 21.8604 -8.58984 31.3301l-19.5801 33.0303h170.37l-19.5801 -33.0303c-5.62012 -9.49023 -8.58984 -20.3105 -8.58984 -31.3301z" />
    <glyph glyph-name="i" unicode="i" horiz-adv-x="204" 
d="M158.763 635.58l-0.0205078 -571.17c0 -11.0703 2.96973 -21.9199 8.62012 -31.4297l19.5703 -32.9805h-170.38l19.5703 32.9697c5.65039 9.5 8.62012 20.3604 8.62012 31.4199v571.19c0 11.0596 -2.96973 21.9199 -8.62012 31.4199l-19.5703 32.9805h170.39
l-19.5596 -32.9805c-5.65039 -9.5 -8.62012 -20.3604 -8.62012 -31.4199z" />
    <glyph glyph-name="i" unicode="&#xef;" horiz-adv-x="204" 
d="M158.763 635.58l-0.0205078 -571.17c0 -11.0703 2.96973 -21.9199 8.62012 -31.4297l19.5703 -32.9805h-170.38l19.5703 32.9697c5.65039 9.5 8.62012 20.3604 8.62012 31.4199v571.19c0 11.0596 -2.96973 21.9199 -8.62012 31.4199l-19.5703 32.9805h170.39
l-19.5596 -32.9805c-5.65039 -9.5 -8.62012 -20.3604 -8.62012 -31.4199z" />
    <glyph glyph-name="i" unicode="&#xee;" horiz-adv-x="204" 
d="M158.763 635.58l-0.0205078 -571.17c0 -11.0703 2.96973 -21.9199 8.62012 -31.4297l19.5703 -32.9805h-170.38l19.5703 32.9697c5.65039 9.5 8.62012 20.3604 8.62012 31.4199v571.19c0 11.0596 -2.96973 21.9199 -8.62012 31.4199l-19.5703 32.9805h170.39
l-19.5596 -32.9805c-5.65039 -9.5 -8.62012 -20.3604 -8.62012 -31.4199z" />
    <glyph glyph-name="i" unicode="&#xed;" horiz-adv-x="204" 
d="M158.763 635.58l-0.0205078 -571.17c0 -11.0703 2.96973 -21.9199 8.62012 -31.4297l19.5703 -32.9805h-170.38l19.5703 32.9697c5.65039 9.5 8.62012 20.3604 8.62012 31.4199v571.19c0 11.0596 -2.96973 21.9199 -8.62012 31.4199l-19.5703 32.9805h170.39
l-19.5596 -32.9805c-5.65039 -9.5 -8.62012 -20.3604 -8.62012 -31.4199z" />
    <glyph glyph-name="i" unicode="&#xec;" horiz-adv-x="204" 
d="M158.763 635.58l-0.0205078 -571.17c0 -11.0703 2.96973 -21.9199 8.62012 -31.4297l19.5703 -32.9805h-170.38l19.5703 32.9697c5.65039 9.5 8.62012 20.3604 8.62012 31.4199v571.19c0 11.0596 -2.96973 21.9199 -8.62012 31.4199l-19.5703 32.9805h170.39
l-19.5596 -32.9805c-5.65039 -9.5 -8.62012 -20.3604 -8.62012 -31.4199z" />
    <glyph glyph-name="j" unicode="j" horiz-adv-x="398" 
d="M353.303 700l28.1885 -0.0185547l-20.4199 -34.4199c-5.08984 -8.57031 -7.76953 -18.3398 -7.76953 -28.3096v-581.771c0 -30.6504 -24.8398 -55.4902 -55.4902 -55.4902h-225.77c-30.6504 0 -55.4902 24.8398 -55.4902 55.4902v180.21
c0 20.96 11.2002 40.3398 29.3506 50.8301l84.6797 48.8896v-193.2c0 -15.5703 12.6104 -28.1699 28.1807 -28.1699h52.3496c15.5596 0 28.1699 12.5996 28.1699 28.1699v495.06c0 9.96973 -2.66992 19.7295 -7.75977 28.2998l-20.4297 34.4297h142.21z" />
    <glyph glyph-name="k" unicode="k" horiz-adv-x="427" 
d="M381.473 393.08l0.000976562 -345.57l28.1699 -47.5098h-142.2v310.22c0 13.9102 -11.2803 25.1904 -25.1904 25.1904h-83.4902v-335.39h-142.21l28.1699 47.5098v604.96l-28.1699 47.5098h142.21v-206.55l119.25 206.55h131.67l-144.66 -250.56h60.0898
c31.1299 0 56.3604 -25.2305 56.3604 -56.3604z" />
    <glyph glyph-name="l" unicode="l" horiz-adv-x="398" 
d="M318.822 114.02c9.88965 0 19.6104 2.67969 28.1299 7.71973l34.5098 20.4697v-142.21h-364.91l20.4697 34.5098c5.05957 8.51953 7.71973 18.2197 7.71973 28.1201v574.74c0 9.90039 -2.67969 19.6201 -7.71973 28.1201l-20.4697 34.5098h170.38l-20.4697 -34.5098
c-5.05957 -8.51953 -7.71973 -18.2197 -7.71973 -28.1201v-523.35h160.08z" />
    <glyph glyph-name="m" unicode="m" horiz-adv-x="614" 
d="M568.912 652.47l0.000976562 -604.96l28.1699 -47.5098h-170.38l28.1699 47.5098v287.5l-104.66 -335.01h-86.79l-104.66 335.01v-287.5l28.1797 -47.5098h-170.39l28.1904 47.5098v604.96l-28.1904 47.5303h170.39l-18.46 -31.1299l138.34 -442.8l138.33 442.8
l-18.4502 31.1299h170.38z" />
    <glyph glyph-name="n" unicode="n" horiz-adv-x="427" 
d="M381.473 637.42l-0.0078125 -574.841c0 -9.86035 2.66016 -19.5303 7.67969 -28.0205l20.4902 -34.5596h-170.36l4.40039 7.44043c7.94043 13.4004 9.83008 29.5303 5.17969 44.3906l-90.0898 288.521v-277.78c0 -9.87012 2.66016 -19.54 7.67969 -28.0303
l20.4902 -34.5498h-170.38l20.4902 34.5498c5.01953 8.49023 7.67969 18.1602 7.67969 28.0303v574.83c0 9.87012 -2.66016 19.54 -7.67969 28.0303l-20.4902 34.5498h170.39l-4.86035 -8.19043c-7.94043 -13.4004 -9.83008 -29.5303 -5.17969 -44.3906l90.54 -289.96
v279.98c0 9.86035 -2.66016 19.5303 -7.69043 28.0205l-20.4805 34.5596h170.37l-20.4805 -34.5596c-5.03027 -8.49023 -7.69043 -18.1602 -7.69043 -28.0205z" />
    <glyph glyph-name="n" unicode="&#xf1;" horiz-adv-x="427" 
d="M381.473 637.42l-0.0078125 -574.841c0 -9.86035 2.66016 -19.5303 7.67969 -28.0205l20.4902 -34.5596h-170.36l4.40039 7.44043c7.94043 13.4004 9.83008 29.5303 5.17969 44.3906l-90.0898 288.521v-277.78c0 -9.87012 2.66016 -19.54 7.67969 -28.0303
l20.4902 -34.5498h-170.38l20.4902 34.5498c5.01953 8.49023 7.67969 18.1602 7.67969 28.0303v574.83c0 9.87012 -2.66016 19.54 -7.67969 28.0303l-20.4902 34.5498h170.39l-4.86035 -8.19043c-7.94043 -13.4004 -9.83008 -29.5303 -5.17969 -44.3906l90.54 -289.96
v279.98c0 9.86035 -2.66016 19.5303 -7.69043 28.0205l-20.4805 34.5596h170.37l-20.4805 -34.5596c-5.03027 -8.49023 -7.69043 -18.1602 -7.69043 -28.0205z" />
    <glyph glyph-name="o" unicode="o" 
d="M80.4629 700h208.93c35.29 0 63.9102 -28.6201 63.9102 -63.9102v-572.19c0 -35.2998 -28.6201 -63.9102 -63.9102 -63.9102h-208.93c-35.29 0 -63.9102 28.6104 -63.9102 63.9102v572.19c0 35.29 28.6201 63.9102 63.9102 63.9102zM213.723 114.02
c14.0996 0 25.5498 11.4404 25.5498 25.5605v420.84c0 14.0996 -11.4297 25.5498 -25.5498 25.5498h-57.5898c-14.0996 0 -25.5498 -11.4297 -25.5498 -25.5498v-420.85c0 -14.1104 11.4502 -25.5508 25.5498 -25.5508h57.5898z" />
    <glyph glyph-name="o" unicode="&#xf8;" 
d="M80.4629 700h208.93c35.29 0 63.9102 -28.6201 63.9102 -63.9102v-572.19c0 -35.2998 -28.6201 -63.9102 -63.9102 -63.9102h-208.93c-35.29 0 -63.9102 28.6104 -63.9102 63.9102v572.19c0 35.29 28.6201 63.9102 63.9102 63.9102zM213.723 114.02
c14.0996 0 25.5498 11.4404 25.5498 25.5605v420.84c0 14.0996 -11.4297 25.5498 -25.5498 25.5498h-57.5898c-14.0996 0 -25.5498 -11.4297 -25.5498 -25.5498v-420.85c0 -14.1104 11.4502 -25.5508 25.5498 -25.5508h57.5898z" />
    <glyph glyph-name="o" unicode="&#xf5;" 
d="M80.4629 700h208.93c35.29 0 63.9102 -28.6201 63.9102 -63.9102v-572.19c0 -35.2998 -28.6201 -63.9102 -63.9102 -63.9102h-208.93c-35.29 0 -63.9102 28.6104 -63.9102 63.9102v572.19c0 35.29 28.6201 63.9102 63.9102 63.9102zM213.723 114.02
c14.0996 0 25.5498 11.4404 25.5498 25.5605v420.84c0 14.0996 -11.4297 25.5498 -25.5498 25.5498h-57.5898c-14.0996 0 -25.5498 -11.4297 -25.5498 -25.5498v-420.85c0 -14.1104 11.4502 -25.5508 25.5498 -25.5508h57.5898z" />
    <glyph glyph-name="o" unicode="&#xf4;" 
d="M80.4629 700h208.93c35.29 0 63.9102 -28.6201 63.9102 -63.9102v-572.19c0 -35.2998 -28.6201 -63.9102 -63.9102 -63.9102h-208.93c-35.29 0 -63.9102 28.6104 -63.9102 63.9102v572.19c0 35.29 28.6201 63.9102 63.9102 63.9102zM213.723 114.02
c14.0996 0 25.5498 11.4404 25.5498 25.5605v420.84c0 14.0996 -11.4297 25.5498 -25.5498 25.5498h-57.5898c-14.0996 0 -25.5498 -11.4297 -25.5498 -25.5498v-420.85c0 -14.1104 11.4502 -25.5508 25.5498 -25.5508h57.5898z" />
    <glyph glyph-name="o" unicode="&#xf3;" 
d="M80.4629 700h208.93c35.29 0 63.9102 -28.6201 63.9102 -63.9102v-572.19c0 -35.2998 -28.6201 -63.9102 -63.9102 -63.9102h-208.93c-35.29 0 -63.9102 28.6104 -63.9102 63.9102v572.19c0 35.29 28.6201 63.9102 63.9102 63.9102zM213.723 114.02
c14.0996 0 25.5498 11.4404 25.5498 25.5605v420.84c0 14.0996 -11.4297 25.5498 -25.5498 25.5498h-57.5898c-14.0996 0 -25.5498 -11.4297 -25.5498 -25.5498v-420.85c0 -14.1104 11.4502 -25.5508 25.5498 -25.5508h57.5898z" />
    <glyph glyph-name="o" unicode="&#xf2;" 
d="M80.4629 700h208.93c35.29 0 63.9102 -28.6201 63.9102 -63.9102v-572.19c0 -35.2998 -28.6201 -63.9102 -63.9102 -63.9102h-208.93c-35.29 0 -63.9102 28.6104 -63.9102 63.9102v572.19c0 35.29 28.6201 63.9102 63.9102 63.9102zM213.723 114.02
c14.0996 0 25.5498 11.4404 25.5498 25.5605v420.84c0 14.0996 -11.4297 25.5498 -25.5498 25.5498h-57.5898c-14.0996 0 -25.5498 -11.4297 -25.5498 -25.5498v-420.85c0 -14.1104 11.4502 -25.5508 25.5498 -25.5508h57.5898z" />
    <glyph glyph-name="p" unicode="p" horiz-adv-x="398" 
d="M323.833 700c31.8301 0 57.6299 -25.8105 57.6299 -57.6406v-249.33c0 -31.8203 -25.7998 -57.6201 -57.6299 -57.6201h-165.07v-272.09c0 -10.3398 2.79004 -20.5 8.05957 -29.4004l20.1104 -33.9199h-170.38l20.1104 33.9199
c5.26953 8.90039 8.05957 19.0605 8.05957 29.4004v573.36c0 10.3398 -2.79004 20.5 -8.05957 29.4004l-20.1104 33.9199h307.28zM267.443 478.219v78.9502c0 15.9102 -12.8896 28.7998 -28.7998 28.7998h-79.9004v-136.55h79.9004
c15.9102 0 28.7998 12.8896 28.7998 28.7998z" />
    <glyph glyph-name="q" unicode="q" 
d="M239.253 700l58.6094 -0.0205078c30.5996 0 55.4199 -24.7998 55.4199 -55.4199v-589.13c0 -30.5996 -24.7998 -55.4297 -55.4199 -55.4297h-55.9297v-36.0195c0 -19.7998 -10.5596 -38.0996 -27.7197 -48l-86.2998 -49.8301v133.87h-55.9404
c-30.5996 0 -55.4199 24.8096 -55.4199 55.4199v589.14c0 30.5996 24.8096 55.4199 55.4199 55.4199h167.28zM213.892 114.02c14 0 25.3604 11.3604 25.3604 25.3604v421.22c0 14.0098 -11.3604 25.3701 -25.3604 25.3701h-57.9697
c-14.0098 0 -25.3701 -11.3604 -25.3701 -25.3701v-421.22c0 -14 11.3604 -25.3604 25.3701 -25.3604h57.9697z" />
    <glyph glyph-name="r" unicode="r" horiz-adv-x="427" 
d="M389.373 34.21l20.2617 -34.1992h-170.38l20.29 34.21c5.16016 8.70996 7.87988 18.6396 7.87988 28.7695v250.64c0 12.0303 -9.75 21.7803 -21.7803 21.7803h-86.9004v-272.44c0 -10.1299 2.71973 -20.0596 7.89941 -28.7598l20.29 -34.2197h-170.38l20.29 34.2197
c5.16016 8.7002 7.87988 18.6299 7.87988 28.7598v574.05c0 10.1201 -2.71973 20.0605 -7.87988 28.7607l-20.29 34.21h308.22c31.3203 0 56.7002 -25.3799 56.7197 -56.7002v-194.5c0 -31.1299 -58.0898 -56.3604 -89.21 -56.3604c31.1201 0 89.21 -25.2305 89.21 -56.3604
v-273.1c0 -10.1299 2.70996 -20.0596 7.87988 -28.7598zM158.765 449.431h86.8896c12.04 0 21.79 9.75 21.79 21.79v92.9502c0 12.04 -9.75 21.79 -21.79 21.79h-86.8896v-136.53z" />
    <glyph glyph-name="s" unicode="s" 
d="M256.492 700l39.8389 -0.0195312c31.46 0 56.9502 -25.4902 56.9502 -56.9502v-85.2402l-33.0898 19.6201c-9.44043 5.59961 -20.21 8.55957 -31.2002 8.55957h-131.56c-14.8301 0 -26.8604 -12.0195 -26.8604 -26.8594v-85.0303
c0 -13.6201 11.0498 -24.6602 24.6602 -24.6602h141.1c31.46 0 56.9502 -25.4902 56.9502 -56.9502v-335.53c0 -31.46 -25.4902 -56.9502 -56.9502 -56.9502h-222.83c-31.4502 0 -56.9502 25.4902 -56.9502 56.9502v135.96c0 20.3604 10.8701 39.1602 28.4805 49.3398
l85.5498 49.4004v-149.94c0 -15.29 12.4004 -27.6797 27.6807 -27.6797h55.8096c13.9199 0 25.2002 11.2803 25.2002 25.2002v169.36c0 14.8398 -12.0195 26.8594 -26.8594 26.8594h-138.89c-31.46 0 -56.9502 25.4902 -56.9502 56.9502v250.66
c0 31.4502 25.4902 56.9502 56.9502 56.9502h182.97z" />
    <glyph glyph-name="s" unicode="&#xdf;" 
d="M256.492 700l39.8389 -0.0195312c31.46 0 56.9502 -25.4902 56.9502 -56.9502v-85.2402l-33.0898 19.6201c-9.44043 5.59961 -20.21 8.55957 -31.2002 8.55957h-131.56c-14.8301 0 -26.8604 -12.0195 -26.8604 -26.8594v-85.0303
c0 -13.6201 11.0498 -24.6602 24.6602 -24.6602h141.1c31.46 0 56.9502 -25.4902 56.9502 -56.9502v-335.53c0 -31.46 -25.4902 -56.9502 -56.9502 -56.9502h-222.83c-31.4502 0 -56.9502 25.4902 -56.9502 56.9502v135.96c0 20.3604 10.8701 39.1602 28.4805 49.3398
l85.5498 49.4004v-149.94c0 -15.29 12.4004 -27.6797 27.6807 -27.6797h55.8096c13.9199 0 25.2002 11.2803 25.2002 25.2002v169.36c0 14.8398 -12.0195 26.8594 -26.8594 26.8594h-138.89c-31.46 0 -56.9502 25.4902 -56.9502 56.9502v250.66
c0 31.4502 25.4902 56.9502 56.9502 56.9502h182.97z" />
    <glyph glyph-name="t" unicode="t" 
d="M16.5527 700l336.73 -0.000976562v-142.22l-34.0098 20.1699c-8.83984 5.25977 -18.9199 8.01953 -29.1895 8.01953h-48.1504v-522.76c0 -10.2803 2.76953 -20.3604 8.00977 -29.1904l20.1699 -34.0195h-170.37l20.1699 34.0195c5.24023 8.83008 8 18.9102 8 29.1904
v522.771h-48.1504c-10.2803 0 -20.3604 -2.76953 -29.1904 -8.00977l-34.0195 -20.1797v142.21z" />
    <glyph glyph-name="u" unicode="u" horiz-adv-x="427" 
d="M381.473 700l28.1387 -0.0205078l-19.6201 -33.0801c-5.59961 -9.44043 -8.5498 -20.2207 -8.5498 -31.2109v-579.25c0 -31.1699 -25.2695 -56.4395 -56.4395 -56.4395h-223.84c-31.1699 0 -56.4395 25.2695 -56.4395 56.4395v579.25
c0 10.9902 -2.9502 21.7705 -8.5498 31.2109l-19.6201 33.0801h170.38l-19.6201 -33.0801c-5.59961 -9.44043 -8.5498 -20.2207 -8.5498 -31.2109v-495.35c0 -14.5303 11.7695 -26.2998 26.2998 -26.2998h56.0801c14.5303 0 26.2998 11.7695 26.2998 26.2998v495.37
c0 10.9805 -2.95996 21.7705 -8.55957 31.2109l-19.6104 33.0801h142.2z" />
    <glyph glyph-name="u" unicode="&#xfc;" horiz-adv-x="427" 
d="M381.473 700l28.1387 -0.0205078l-19.6201 -33.0801c-5.59961 -9.44043 -8.5498 -20.2207 -8.5498 -31.2109v-579.25c0 -31.1699 -25.2695 -56.4395 -56.4395 -56.4395h-223.84c-31.1699 0 -56.4395 25.2695 -56.4395 56.4395v579.25
c0 10.9902 -2.9502 21.7705 -8.5498 31.2109l-19.6201 33.0801h170.38l-19.6201 -33.0801c-5.59961 -9.44043 -8.5498 -20.2207 -8.5498 -31.2109v-495.35c0 -14.5303 11.7695 -26.2998 26.2998 -26.2998h56.0801c14.5303 0 26.2998 11.7695 26.2998 26.2998v495.37
c0 10.9805 -2.95996 21.7705 -8.55957 31.2109l-19.6104 33.0801h142.2z" />
    <glyph glyph-name="u" unicode="&#xfb;" horiz-adv-x="427" 
d="M381.473 700l28.1387 -0.0205078l-19.6201 -33.0801c-5.59961 -9.44043 -8.5498 -20.2207 -8.5498 -31.2109v-579.25c0 -31.1699 -25.2695 -56.4395 -56.4395 -56.4395h-223.84c-31.1699 0 -56.4395 25.2695 -56.4395 56.4395v579.25
c0 10.9902 -2.9502 21.7705 -8.5498 31.2109l-19.6201 33.0801h170.38l-19.6201 -33.0801c-5.59961 -9.44043 -8.5498 -20.2207 -8.5498 -31.2109v-495.35c0 -14.5303 11.7695 -26.2998 26.2998 -26.2998h56.0801c14.5303 0 26.2998 11.7695 26.2998 26.2998v495.37
c0 10.9805 -2.95996 21.7705 -8.55957 31.2109l-19.6104 33.0801h142.2z" />
    <glyph glyph-name="u" unicode="&#xfa;" horiz-adv-x="427" 
d="M381.473 700l28.1387 -0.0205078l-19.6201 -33.0801c-5.59961 -9.44043 -8.5498 -20.2207 -8.5498 -31.2109v-579.25c0 -31.1699 -25.2695 -56.4395 -56.4395 -56.4395h-223.84c-31.1699 0 -56.4395 25.2695 -56.4395 56.4395v579.25
c0 10.9902 -2.9502 21.7705 -8.5498 31.2109l-19.6201 33.0801h170.38l-19.6201 -33.0801c-5.59961 -9.44043 -8.5498 -20.2207 -8.5498 -31.2109v-495.35c0 -14.5303 11.7695 -26.2998 26.2998 -26.2998h56.0801c14.5303 0 26.2998 11.7695 26.2998 26.2998v495.37
c0 10.9805 -2.95996 21.7705 -8.55957 31.2109l-19.6104 33.0801h142.2z" />
    <glyph glyph-name="u" unicode="&#xf9;" horiz-adv-x="427" 
d="M381.473 700l28.1387 -0.0205078l-19.6201 -33.0801c-5.59961 -9.44043 -8.5498 -20.2207 -8.5498 -31.2109v-579.25c0 -31.1699 -25.2695 -56.4395 -56.4395 -56.4395h-223.84c-31.1699 0 -56.4395 25.2695 -56.4395 56.4395v579.25
c0 10.9902 -2.9502 21.7705 -8.5498 31.2109l-19.6201 33.0801h170.38l-19.6201 -33.0801c-5.59961 -9.44043 -8.5498 -20.2207 -8.5498 -31.2109v-495.35c0 -14.5303 11.7695 -26.2998 26.2998 -26.2998h56.0801c14.5303 0 26.2998 11.7695 26.2998 26.2998v495.37
c0 10.9805 -2.95996 21.7705 -8.55957 31.2109l-19.6104 33.0801h142.2z" />
    <glyph glyph-name="v" unicode="v" horiz-adv-x="427" 
d="M239.282 700l170.38 0.00195312l-23 -38.7803c-3.42969 -5.78027 -5.75977 -12.1299 -6.87988 -18.7598l-108.65 -642.46h-114.95l-109.75 642.51c-1.12012 6.59961 -3.4502 12.9297 -6.86035 18.6797l-23.0195 38.8096h170.39l-17.9199 -30.2402
c-6.62012 -11.1602 -9.0498 -24.2998 -6.87012 -37.0898l51.2402 -299.92l50.7305 299.97c2.16992 12.7695 -0.280273 25.8799 -6.87988 37.0098z" />
    <glyph glyph-name="w" unicode="w" horiz-adv-x="479" 
d="M434.272 634.99l0.0214844 -569.98c0 -11.4404 3.08008 -22.6807 8.92969 -32.5303l19.25 -32.4805h-170.41c6.33984 10.6699 7.83008 23.5098 4.13965 35.3496l-56.6904 181.52l-56.6904 -181.52c-3.69043 -11.8398 -2.18066 -24.6895 4.13965 -35.3496h-170.41
l19.2695 32.4805c5.84961 9.84961 8.92969 21.0801 8.92969 32.5303v569.98c0 11.4404 -3.08008 22.6904 -8.92969 32.54l-19.25 32.4697h170.39l-19.2598 -32.4697c-5.83984 -9.84961 -8.92969 -21.0801 -8.92969 -32.54v-311.55l39.3496 126h82.7803l39.3496 -126v311.55
c0 11.4404 -3.08008 22.6904 -8.92969 32.54l-19.2598 32.4697h170.4l-19.2598 -32.4697c-5.83984 -9.84961 -8.92969 -21.0801 -8.92969 -32.54z" />
    <glyph glyph-name="x" unicode="x" horiz-adv-x="427" 
d="M270.183 350l109.568 -297.639c1.17969 -3.21973 2.66016 -6.30957 4.40039 -9.25977l25.54 -43.0801h-170.39l13.4297 22.6396c9.32031 15.7402 11.0801 34.8398 4.75977 52.0098l-44.3301 120.43l-0.0302734 -0.0800781l-0.0302734 0.0800781l-44.3301 -120.43
c-6.32031 -17.1699 -4.56055 -36.2803 4.75977 -52.0107l13.4297 -22.6396h-170.39l25.54 43.0801c1.74023 2.94043 3.2207 6.04004 4.40039 9.25977l109.55 297.64l-109.55 297.65c-1.17969 3.20996 -2.66016 6.32031 -4.40039 9.25l-25.5596 43.0801h170.39
l-13.4199 -22.6396c-9.33008 -15.7402 -11.0898 -34.8301 -4.76953 -52.0098l44.3301 -120.43l0.0302734 0.0800781l0.0400391 -0.0800781l44.3203 120.43c6.32031 17.1797 4.57031 36.29 -4.75977 52.0098l-13.4297 22.6396h170.4l-25.5498 -43.0801
c-1.74023 -2.92969 -3.2207 -6.04004 -4.40039 -9.25z" />
    <glyph glyph-name="y" unicode="y" horiz-adv-x="427" 
d="M239.282 701.02h170.38l-25.1699 -42.4902c-1.98047 -3.34961 -3.66016 -6.87988 -5 -10.5195l-105.35 -286.22c-2.62988 -7.12988 -3.97949 -14.6602 -3.97949 -22.2598v-264.93c0 -11.4697 3.08984 -22.7197 8.92969 -32.5898l19.25 -32.4404h-170.45l19.2402 32.4404
c5.84961 9.87012 8.92969 21.1201 8.92969 32.5898v264.93c0 7.58008 -1.33984 15.1299 -3.96973 22.2598l-105.33 286.22c-1.34961 3.66016 -3.01953 7.16992 -5.00977 10.5195l-25.2002 42.4902h170.39l-12.6699 -21.3799
c-9.82031 -16.5303 -11.6406 -36.6104 -5.01074 -54.6504l43.8203 -119.06l0.0302734 0.0800781l0.0400391 -0.0800781l43.8096 119.06c6.63965 18.04 4.7998 38.1201 -5 54.6504z" />
    <glyph glyph-name="y" unicode="&#xff;" horiz-adv-x="427" 
d="M239.282 701.02h170.38l-25.1699 -42.4902c-1.98047 -3.34961 -3.66016 -6.87988 -5 -10.5195l-105.35 -286.22c-2.62988 -7.12988 -3.97949 -14.6602 -3.97949 -22.2598v-264.93c0 -11.4697 3.08984 -22.7197 8.92969 -32.5898l19.25 -32.4404h-170.45l19.2402 32.4404
c5.84961 9.87012 8.92969 21.1201 8.92969 32.5898v264.93c0 7.58008 -1.33984 15.1299 -3.96973 22.2598l-105.33 286.22c-1.34961 3.66016 -3.01953 7.16992 -5.00977 10.5195l-25.2002 42.4902h170.39l-12.6699 -21.3799
c-9.82031 -16.5303 -11.6406 -36.6104 -5.01074 -54.6504l43.8203 -119.06l0.0302734 0.0800781l0.0400391 -0.0800781l43.8096 119.06c6.63965 18.04 4.7998 38.1201 -5 54.6504z" />
    <glyph glyph-name="y" unicode="&#xfd;" horiz-adv-x="427" 
d="M239.282 701.02h170.38l-25.1699 -42.4902c-1.98047 -3.34961 -3.66016 -6.87988 -5 -10.5195l-105.35 -286.22c-2.62988 -7.12988 -3.97949 -14.6602 -3.97949 -22.2598v-264.93c0 -11.4697 3.08984 -22.7197 8.92969 -32.5898l19.25 -32.4404h-170.45l19.2402 32.4404
c5.84961 9.87012 8.92969 21.1201 8.92969 32.5898v264.93c0 7.58008 -1.33984 15.1299 -3.96973 22.2598l-105.33 286.22c-1.34961 3.66016 -3.01953 7.16992 -5.00977 10.5195l-25.2002 42.4902h170.39l-12.6699 -21.3799
c-9.82031 -16.5303 -11.6406 -36.6104 -5.01074 -54.6504l43.8203 -119.06l0.0302734 0.0800781l0.0400391 -0.0800781l43.8096 119.06c6.63965 18.04 4.7998 38.1201 -5 54.6504z" />
    <glyph glyph-name="z" unicode="z" 
d="M353.303 700l-0.000976562 -100.54c0 -8.87988 -1.96973 -17.6602 -5.75977 -25.6904l-216.96 -459.75h159.19c10.4902 0 20.7803 2.82031 29.79 8.18066l33.7402 20.0098v-142.21h-336.729v100.54c0 8.87988 1.96973 17.6699 5.75977 25.6895l216.95 459.75h-159.2
c-10.4902 0 -20.7803 -2.82031 -29.79 -8.16992l-33.7402 -20.0195v142.21h336.75z" />
    <glyph glyph-name="braceleft" unicode="{" horiz-adv-x="280" 
d="M205.742 497.49c0 -45.9102 -18.1201 -89.9521 -50.4199 -122.592l-24.7402 -24.9697l24.7598 -24.9697c32.2803 -32.5703 50.4004 -76.5703 50.4004 -122.42v-63.4902c0 -13.5898 11.0195 -24.6094 24.6094 -24.6094h32.8496v-114.92h-58.6699
c-62.7998 0 -113.71 50.9102 -113.71 113.71v89.2402c0 15.5801 -6.15039 30.54 -17.1201 41.5996l-57.1504 57.6699v96.3701l57.1504 57.6797c10.9697 11.0801 17.1201 26.04 17.1201 41.6201v89.3203c0 62.7998 50.9102 113.71 113.71 113.71h58.6699v-114.92h-32.8496
c-13.5898 0 -24.6094 -11.0195 -24.6094 -24.6094v-63.4199z" />
    <glyph glyph-name="bar" unicode="|" horiz-adv-x="203" 
d="M158.763 705.94l-0.0205078 -711.899c0 -11.0596 2.96973 -21.9199 8.62012 -31.4199l19.5703 -32.9805h-170.38l19.5703 33c5.65039 9.5 8.62012 20.3496 8.62012 31.4199v711.88c0 11.0703 -2.96973 21.9199 -8.62012 31.4199l-19.5703 32.9902h170.39
l-19.5596 -32.9902c-5.65039 -9.5 -8.62012 -20.3496 -8.62012 -31.4199z" />
    <glyph glyph-name="braceright" unicode="}" horiz-adv-x="280" 
d="M206.053 455.8l57.1504 -57.6484v-96.3701l-57.1504 -57.6797c-10.96 -11.0596 -17.1201 -26.0195 -17.1201 -41.5996v-89.2402c0 -62.7998 -50.9102 -113.71 -113.7 -113.71h-58.6797v114.92h32.8496c13.5898 0 24.6094 11.0195 24.6094 24.6094v63.4902
c0 45.8701 18.1104 89.8701 50.4004 122.42l24.7598 24.9697l-24.7402 24.9697c-32.2998 32.6201 -50.4199 76.6699 -50.4199 122.57v63.4199c0 13.5996 -11.0195 24.6094 -24.6094 24.6094h-32.8496v114.92h58.6797c62.79 0 113.7 -50.9102 113.7 -113.7v-89.3301
c0 -15.5898 6.16016 -30.5498 17.1201 -41.6201z" />
    <glyph glyph-name="asciitilde" unicode="~" horiz-adv-x="441" 
d="M370.143 396.98l54.1982 30.8291v-132.02c-68.1797 -37.6797 -149.81 -38.8994 -219.01 -2.7793l-22.9199 11.9697c-35.3398 18.4004 -77.0596 17.6504 -111.68 -2.04004l-54.1797 -30.8496v132.03c68.2002 37.6797 149.79 38.8594 218.99 2.7793l22.9297 -11.9697
c35.3203 -18.4502 77.1006 -17.6699 111.671 2.0498z" />
    <glyph glyph-name="nonbreakingspace" unicode="&#xa0;" horiz-adv-x="236" 
 />
    <glyph glyph-name="cent" unicode="&#xa2;" horiz-adv-x="319" 
d="M210.433 300.95c9.16992 4.91992 20.6299 2.33008 28 -5.03027l63.8799 -63.8799c-30.21 -30.1904 -69.1602 -46.2402 -108.78 -48.5098v-69.6602h-68.2598v79.8896c-31.3896 11.6904 -60.0596 32.7705 -81 64.1904c-36.96 55.4297 -36.96 129.58 0 185.01
c20.9404 31.4199 49.6104 52.5 81 64.1904v78.96h68.2598v-68.7197c39.6201 -2.25977 78.5898 -18.3193 108.78 -48.5098l-63.8799 -63.8799c-7.34961 -7.37012 -18.8096 -9.96973 -28 -5.04004c-26.1104 13.9697 -61.0303 5.83984 -76.9004 -24.3799
c-8.15039 -15.5 -8.15039 -34.7402 0 -50.25c15.8604 -30.2305 50.7803 -38.3506 76.9004 -24.3809z" />
    <glyph glyph-name="guillemotleft" unicode="&#xab;" horiz-adv-x="538" 
d="M520.763 585.96l-164.311 -236.01l164.24 -235.92h-140.02l-164.24 235.92l164.3 236.01h140.03zM320.882 585.96l-164.29 -236.01l164.22 -235.92h-140.02l-164.24 235.92l164.32 236.01h140.01z" />
    <glyph glyph-name="degree" unicode="&#xb0;" horiz-adv-x="398" 
d="M198.853 699.99c100.68 0 182.291 -81.6104 182.291 -182.29c0 -100.69 -81.6201 -182.301 -182.29 -182.301c-100.69 0 -182.301 81.6104 -182.301 182.301c0 100.68 81.6299 182.29 182.3 182.29zM198.854 450.34c37.1504 0 67.3701 30.2197 67.3701 67.3701
c0 37.1602 -30.2197 67.3799 -67.3701 67.3799c-37.1602 0 -67.3799 -30.2197 -67.3799 -67.3799c0 -37.1504 30.2197 -67.3701 67.3799 -67.3701z" />
    <glyph glyph-name="guillemotright" unicode="&#xbb;" horiz-adv-x="538" 
d="M156.572 585.96l164.31 -236.01l-164.24 -235.92h-140.02l164.23 235.92l-164.3 236.01h140.02zM356.441 585.96l164.32 -236.01l-164.24 -235.92h-140.02l164.22 235.92l-164.29 236.01h140.01z" />
    <glyph glyph-name="Odieresis" unicode="&#xd6;" 
d="M289.393 699.99c35.29 0 63.9102 -28.6104 63.9102 -63.9102v-572.17c0 -35.2998 -28.6201 -63.9102 -63.9102 -63.9102h-208.93c-35.29 0 -63.9102 28.6104 -63.9102 63.9102v572.17c0 35.2998 28.6201 63.9102 63.9102 63.9102h208.93zM239.272 139.58v420.841
c0 14.0996 -11.4502 25.54 -25.5498 25.54h-57.5898c-14.0996 0 -25.5498 -11.4404 -25.5498 -25.54v-420.84c0 -14.1104 11.4502 -25.5508 25.5498 -25.5508h57.5898c14.0996 0 25.5498 11.4297 25.5498 25.5498zM237.723 735.161
c-19.4297 0 -35.1797 15.75 -35.1797 35.1797s15.75 35.1797 35.1797 35.1797s35.1895 -15.75 35.1895 -35.1797s-15.7598 -35.1797 -35.1895 -35.1797zM130.583 735.161c-19.4297 0 -35.1797 15.75 -35.1797 35.1797s15.75 35.1797 35.1797 35.1797
s35.1895 -15.75 35.1895 -35.1797s-15.7598 -35.1797 -35.1895 -35.1797z" />
    <glyph glyph-name="multiply" unicode="&#xd7;" horiz-adv-x="352" 
d="M335.293 428.73l-78.7402 -78.7402l78.7402 -78.7305l-80.6201 -80.6396l-78.7402 78.75l-78.75 -78.75l-80.6299 80.6396l78.7402 78.7305l-78.7402 78.7402l80.6299 80.6396l78.75 -78.75l78.7402 78.75z" />
    <glyph glyph-name="odieresis" unicode="&#xf6;" 
d="M289.393 699.99c35.29 0 63.9102 -28.6104 63.9102 -63.9102v-572.17c0 -35.2998 -28.6201 -63.9102 -63.9102 -63.9102h-208.93c-35.29 0 -63.9102 28.6104 -63.9102 63.9102v572.17c0 35.2998 28.6201 63.9102 63.9102 63.9102h208.93zM239.272 139.58v420.841
c0 14.0996 -11.4502 25.54 -25.5498 25.54h-57.5898c-14.0996 0 -25.5498 -11.4404 -25.5498 -25.54v-420.84c0 -14.1104 11.4502 -25.5508 25.5498 -25.5508h57.5898c14.0996 0 25.5498 11.4297 25.5498 25.5498zM237.723 735.161
c-19.4297 0 -35.1797 15.75 -35.1797 35.1797s15.75 35.1797 35.1797 35.1797s35.1895 -15.75 35.1895 -35.1797s-15.7598 -35.1797 -35.1895 -35.1797zM130.583 735.161c-19.4297 0 -35.1797 15.75 -35.1797 35.1797s15.75 35.1797 35.1797 35.1797
s35.1895 -15.75 35.1895 -35.1797s-15.7598 -35.1797 -35.1895 -35.1797z" />
    <glyph glyph-name="divide" unicode="&#xf7;" horiz-adv-x="441" 
d="M277.473 146.09h-114.04v114.04h114.04v-114.04zM277.473 439.859h-114.04v114.04h114.04v-114.04zM16.5527 407.01h407.79v-114.03h-407.79v114.03z" />
    <glyph glyph-name="quoteleft" unicode="&#x2018;" horiz-adv-x="148" 
d="M76.4229 588.6l54.1797 0.000976562v-114.03h-114.03v44.6699c0 23.9697 2.51953 48.0693 9.7998 70.9189c13.6904 42.9502 39.6006 81.04 74.4307 109.82l26.1904 -40.3096c-22.21 -19.4805 -39.6201 -43.75 -50.5703 -71.0703z" />
    <glyph glyph-name="quoteright" unicode="&#x2019;" horiz-adv-x="148" 
d="M16.5527 699.99l114.05 -0.00195312v-44.6699c0 -23.9697 -2.53027 -48.0693 -9.7998 -70.9189c-13.6904 -42.9502 -39.6006 -81.04 -74.4404 -109.81l-26.1797 40.2998c22.21 19.4902 39.6104 43.75 50.5605 71.0703h-54.1904v114.03z" />
    <glyph glyph-name="quotedblleft" unicode="&#x201c;" horiz-adv-x="311" 
d="M239.732 588.6l54.1709 0.000976562v-114.03h-114.03v44.6699c0 23.9697 2.53027 48.0693 9.7998 70.9189c13.6904 42.9502 39.6006 81.04 74.4404 109.82l26.1797 -40.3096c-22.21 -19.4805 -39.6104 -43.75 -50.5605 -71.0703zM126.974 659.671
c-22.21 -19.4805 -39.6104 -43.749 -50.5801 -71.0693h54.1904v-114.03h-114.03v44.6699c0 23.9697 2.53027 48.0693 9.7998 70.9189c13.6904 42.9502 39.6006 81.04 74.4404 109.82z" />
    <glyph glyph-name="quotedblright" unicode="&#x201d;" horiz-adv-x="311" 
d="M70.7422 585.96l-54.1709 -0.00195312v114.03h114.03v-44.6699c0 -23.9697 -2.53027 -48.0693 -9.7998 -70.9189c-13.6904 -42.9502 -39.6006 -81.04 -74.4404 -109.81l-26.1797 40.2998c22.21 19.4902 39.6104 43.75 50.5605 71.0703zM179.871 699.988
l114.05 -0.00195312v-44.6699c0 -23.9697 -2.53027 -48.0693 -9.7998 -70.9189c-13.6904 -42.9502 -39.6006 -81.04 -74.4404 -109.81l-26.1797 40.2998c22.21 19.4902 39.6104 43.75 50.5605 71.0703h-54.1904v114.03z" />
    <glyph glyph-name="guilsinglleft" unicode="&#x2039;" horiz-adv-x="338" 
d="M320.883 585.96l-164.311 -236.01l164.24 -235.92h-140.02l-164.24 235.92l164.3 236.01h140.03z" />
    <glyph glyph-name="guilsinglright" unicode="&#x203a;" horiz-adv-x="338" 
d="M156.562 585.96l164.32 -236.01l-164.26 -235.92h-140l164.22 235.92l-164.29 236.01h140.01z" />
    </font>
</defs>
</svg>
